<?xml version="1.0" standalone="no"?>
<!DOCTYPE svg PUBLIC "-//W3C//DTD SVG 20010904//EN"
 "http://www.w3.org/TR/2001/REC-SVG-20010904/DTD/svg10.dtd">
<svg version="1.0" xmlns="http://www.w3.org/2000/svg"
 width="1536.000000pt" height="2040.000000pt" viewBox="0 0 1536.000000 2040.000000"
 preserveAspectRatio="xMidYMid meet">

<g transform="translate(0.000000,2040.000000) scale(0.100000,-0.100000)"
fill="#000000" stroke="none">
<path d="M30 20166 c0 -2 13 -6 29 -8 17 -2 28 -1 25 4 -5 8 -54 12 -54 4z"/>
<path d="M96 20131 c-3 -5 4 -11 16 -14 29 -8 32 -4 8 11 -10 6 -21 8 -24 3z"/>
<path d="M5233 15840 c-13 -5 -23 -14 -23 -20 0 -15 9 -12 37 10 27 21 22 24
-14 10z"/>
<path d="M5176 15683 c5 -5 12 -12 16 -18 4 -6 8 -2 8 8 0 9 -7 17 -17 17 -9
0 -12 -3 -7 -7z"/>
<path d="M2860 15635 c13 -16 50 -21 50 -6 0 10 -24 21 -47 21 -13 0 -13 -3
-3 -15z"/>
<path d="M0 15361 l0 -31 618 0 c555 0 1803 -9 3677 -25 657 -6 7940 -6 8045
-1 30 2 722 7 1538 11 l1482 8 0 30 0 30 -817 -7 c-450 -4 -1353 -9 -2008 -11
-654 -3 -1341 -7 -1525 -10 -184 -2 -909 -4 -1610 -3 -4140 5 -5032 6 -5465
11 -264 3 -1022 8 -1685 11 -663 2 -1440 8 -1727 11 l-523 7 0 -31z"/>
<path d="M1910 14692 c0 -11 22 -32 32 -32 5 0 4 9 -2 20 -11 20 -30 28 -30
12z"/>
<path d="M6205 14610 c-3 -5 -1 -10 4 -10 6 0 11 5 11 10 0 6 -2 10 -4 10 -3
0 -8 -4 -11 -10z"/>
<path d="M5958 14473 c7 -3 16 -2 19 1 4 3 -2 6 -13 5 -11 0 -14 -3 -6 -6z"/>
<path d="M6760 14253 c-19 -9 -60 -28 -90 -41 -79 -36 -190 -105 -190 -118 0
-12 -59 -61 -68 -56 -2 2 -8 -2 -13 -9 -4 -7 -15 -14 -23 -15 -9 -1 -25 -13
-35 -26 -11 -12 -23 -19 -28 -15 -4 5 8 22 27 38 36 30 30 40 -8 13 -12 -8
-27 -12 -32 -9 -6 3 -14 -5 -19 -18 -5 -13 -22 -32 -38 -42 -15 -9 -41 -32
-58 -49 -16 -18 -45 -41 -62 -52 -32 -20 -101 -103 -129 -157 -23 -43 -80
-115 -113 -143 -16 -13 -42 -45 -58 -69 -15 -25 -33 -45 -39 -45 -7 0 -19 -16
-28 -35 -9 -19 -20 -37 -25 -39 -5 -3 -12 -22 -15 -41 -7 -37 -26 -39 -26 -4
0 13 -4 18 -12 13 -8 -5 -9 -1 -4 12 5 14 4 16 -4 8 -9 -9 -9 -22 0 -54 14
-52 8 -61 -13 -18 -9 18 -17 26 -17 18 0 -8 7 -28 15 -44 8 -15 15 -40 15 -55
0 -17 3 -22 8 -13 6 8 9 2 9 -18 0 -35 -13 -40 -23 -7 -13 43 -48 51 -42 9 3
-19 0 -29 -9 -29 -8 0 -12 5 -10 12 3 6 -1 19 -9 30 -13 18 -14 18 -15 -6 0
-14 -3 -18 -6 -9 -2 8 -11 29 -19 47 -8 17 -14 37 -14 45 0 8 -5 6 -12 -6 -7
-13 -7 -29 1 -56 6 -20 11 -51 11 -69 0 -17 4 -31 10 -31 5 0 7 -6 4 -14 -3
-8 -1 -17 5 -21 6 -3 11 -11 11 -17 0 -7 -4 -7 -12 -1 -22 17 -50 24 -41 11 4
-7 8 -19 9 -28 1 -8 4 -22 8 -31 6 -13 1 -15 -26 -12 l-33 3 31 -10 c30 -10
43 -40 17 -40 -7 0 -13 -6 -13 -14 0 -8 -10 -23 -22 -33 -25 -20 -40 -71 -16
-57 10 6 11 5 2 -7 -13 -16 -15 -50 -3 -64 4 -6 4 -17 -1 -25 -6 -8 -10 -10
-10 -5 0 6 -4 3 -10 -5 -5 -9 -5 -19 1 -27 6 -6 13 -30 15 -52 4 -37 3 -41
-18 -42 l-23 0 24 -10 c23 -9 23 -11 9 -26 -13 -12 -14 -21 -6 -39 8 -17 8
-27 -1 -38 -9 -11 -10 -20 -1 -35 8 -15 8 -27 0 -41 -8 -14 -8 -20 1 -20 7 0
9 -14 4 -42 -4 -31 -3 -39 4 -28 9 12 11 11 11 -7 0 -12 -5 -34 -11 -50 -13
-35 -18 -133 -6 -133 4 0 5 -28 2 -62 -3 -39 -2 -58 3 -50 7 11 10 10 16 -3 9
-25 8 -28 -10 -21 -13 5 -14 1 -9 -24 4 -19 2 -36 -5 -45 -10 -12 -9 -22 2
-47 14 -34 15 -80 3 -211 -5 -54 -4 -77 4 -77 6 0 11 6 11 14 0 8 4 17 9 21
13 7 1 -104 -14 -133 l-12 -24 -16 26 c-21 32 -46 34 -49 4 -6 -84 -3 -194 6
-200 8 -5 7 -14 -1 -28 -7 -11 -13 -37 -13 -57 0 -36 43 -229 53 -239 2 -3 8
30 12 73 11 115 43 293 55 308 8 10 8 19 1 34 -6 11 -11 28 -10 38 0 10 6 2
13 -17 9 -25 15 -31 19 -20 4 8 5 0 2 -17 -3 -24 -1 -33 10 -33 17 0 28 -31
19 -54 -3 -9 -1 -16 5 -16 6 0 8 -7 5 -15 -5 -11 -2 -13 10 -9 11 4 15 13 11
25 -8 24 10 25 20 2 4 -11 -1 -23 -12 -33 -33 -27 -63 -90 -69 -148 -4 -31
-11 -60 -17 -63 -14 -10 -20 -109 -7 -124 6 -8 18 -11 26 -8 8 3 25 -2 39 -11
25 -16 25 -16 25 18 0 44 19 138 31 150 5 6 9 37 9 70 0 83 12 66 19 -27 1 -5
6 -5 11 -2 6 3 10 -3 10 -15 0 -13 4 -18 11 -14 7 4 10 -3 9 -17 -4 -50 0 -99
10 -99 16 0 30 69 19 98 -13 34 -14 263 -2 288 5 11 9 41 7 68 -1 27 4 60 12
74 7 14 10 30 7 35 -10 16 -11 91 -1 110 7 13 5 17 -8 17 -12 0 -14 3 -5 13 8
10 7 17 -1 25 -8 8 -8 15 1 26 7 8 11 23 9 33 -2 10 2 17 10 15 6 -1 12 2 12
7 0 5 -6 12 -12 14 -10 4 -10 8 1 15 8 6 12 19 8 32 -3 13 -2 19 3 14 5 -5 10
-25 12 -44 2 -19 8 -33 13 -30 6 3 9 12 7 20 -10 55 -10 70 -2 70 6 0 10 9 10
20 0 23 10 26 28 8 9 -9 12 -9 12 -1 0 7 -4 15 -10 18 -13 8 -13 35 1 35 5 0
7 -5 3 -12 -4 -7 -3 -8 4 -4 7 4 12 16 12 26 0 17 -4 18 -26 10 -35 -14 -44
-12 -38 5 4 8 17 15 30 15 14 0 24 6 24 15 0 8 -6 12 -14 9 -11 -4 -13 0 -9
15 3 12 1 21 -6 21 -22 0 -10 31 15 40 23 9 26 15 21 45 -4 21 -1 36 6 39 9 3
9 5 0 5 -19 2 -45 -31 -40 -50 3 -11 2 -21 -3 -24 -4 -3 -10 5 -13 17 -5 17
-9 19 -21 9 -10 -8 -16 -9 -21 -1 -3 5 -2 10 3 10 10 0 22 46 15 54 -13 12
-33 -8 -28 -28 5 -17 4 -18 -4 -6 -9 12 -12 13 -20 1 -5 -7 -11 -9 -14 -4 -3
5 7 17 23 28 16 11 30 30 33 42 5 27 3 26 -72 -35 -23 -19 -41 -29 -41 -23 0
6 3 11 8 11 17 1 46 56 47 93 1 22 8 45 16 51 23 18 42 46 32 46 -6 0 -24 -14
-42 -30 l-32 -31 7 26 c5 21 3 24 -11 18 -15 -5 -17 -2 -11 20 4 18 2 27 -6
27 -9 0 -9 3 0 12 7 7 12 17 12 22 0 6 -5 4 -10 -4 -6 -9 -10 -10 -10 -3 0 7
13 27 28 45 34 39 45 65 31 74 -5 3 -17 0 -27 -8 -10 -8 -7 0 7 20 13 19 30
36 37 39 7 3 16 13 19 24 6 18 28 47 67 89 9 10 14 20 12 22 -2 3 7 15 21 28
14 13 25 29 25 37 0 7 4 13 8 13 4 0 16 14 26 30 26 46 66 85 82 82 8 -2 14 3
14 11 0 23 39 66 78 86 173 87 181 91 183 69 0 -7 4 -4 9 7 7 16 9 17 9 3 1
-25 17 -30 36 -11 13 13 21 14 35 5 21 -13 34 -4 19 14 -21 26 -1 51 46 59 25
3 49 4 54 1 5 -4 12 0 14 6 4 9 8 9 14 3 19 -23 159 -27 174 -5 7 12 11 12 17
2 5 -7 16 -10 25 -6 12 4 17 1 17 -11 0 -9 5 -13 10 -10 6 3 10 0 10 -7 0 -9
3 -9 10 2 9 13 11 13 20 0 7 -12 10 -12 10 -1 0 9 6 11 18 6 9 -4 48 -9 85
-10 37 -2 75 -9 83 -16 8 -6 17 -9 20 -6 9 8 75 -43 69 -53 -3 -4 2 -14 11
-21 13 -10 19 -10 36 0 14 8 24 9 30 3 6 -6 17 -8 24 -5 8 3 14 -1 14 -10 0
-13 31 -24 83 -30 9 -1 17 -5 17 -9 0 -4 19 -8 43 -8 36 0 47 -5 65 -30 13
-16 29 -30 37 -30 8 0 15 -4 15 -10 0 -5 16 -10 36 -10 21 0 33 -4 29 -10 -9
-15 4 -12 21 5 14 13 19 13 44 0 21 -11 28 -20 24 -33 -5 -14 -4 -14 4 -2 9
12 14 12 31 -4 12 -11 29 -16 41 -13 11 3 20 1 20 -4 0 -5 9 -19 19 -31 11
-13 29 -34 40 -47 12 -13 21 -19 21 -12 0 18 34 -4 55 -35 10 -15 18 -37 19
-48 1 -13 8 -21 18 -21 24 0 35 -15 12 -16 -10 0 -13 -3 -6 -6 6 -2 12 -10 12
-17 0 -7 10 -18 23 -24 19 -10 18 -10 -10 -5 -36 6 -45 -11 -17 -32 13 -9 14
-16 6 -32 -10 -18 -9 -20 16 -16 l27 3 -25 -11 c-14 -6 -34 -15 -45 -20 -12
-5 -1 -6 28 -2 l48 6 -3 -37 c-2 -35 -3 -36 -45 -36 -24 0 -43 3 -43 8 0 4
-14 8 -30 9 -18 1 -28 -2 -25 -7 4 -6 17 -10 31 -10 13 0 24 -4 24 -8 0 -5 20
-8 45 -7 36 1 45 -2 45 -16 0 -12 -6 -15 -26 -11 -19 3 -25 1 -20 -7 4 -6 16
-11 27 -11 11 0 17 -5 14 -10 -3 -6 -17 -7 -31 -4 -18 5 -24 2 -24 -9 0 -9 10
-17 22 -19 13 -2 24 -11 26 -21 3 -15 -1 -17 -22 -11 -24 6 -28 3 -28 -26 -1
-3 2 -20 5 -37 5 -26 3 -33 -9 -33 -9 0 -14 7 -12 18 2 11 -5 18 -21 20 -19 3
-22 0 -17 -13 3 -9 6 -20 6 -23 0 -4 5 0 10 8 8 13 10 12 10 -2 0 -13 -8 -18
-30 -18 -20 0 -30 -5 -30 -15 0 -8 5 -15 10 -15 6 0 10 -9 10 -19 0 -21 -28
-35 -52 -26 -12 5 -14 0 -10 -22 5 -27 4 -27 -14 -12 -10 9 -32 19 -47 21 -22
4 -27 2 -25 -11 1 -9 -4 -27 -12 -41 l-14 -25 -5 23 c-3 13 -9 23 -13 23 -5
-1 -19 -1 -33 -1 -17 0 -29 -7 -35 -22 -5 -13 -9 -17 -9 -10 -1 21 -19 13 -23
-10 -2 -17 -9 -22 -24 -21 -15 2 -24 -5 -28 -20 -5 -17 -8 -19 -15 -8 -8 13
-35 7 -28 -7 2 -4 -10 -19 -25 -34 -15 -15 -28 -23 -28 -17 0 19 -19 8 -22
-13 -2 -12 -8 -23 -14 -25 -7 -2 -10 7 -8 24 2 15 1 22 -2 16 -3 -7 -12 -13
-20 -13 -8 0 -14 -7 -14 -15 0 -8 5 -15 10 -15 6 0 10 -5 10 -11 0 -5 -4 -7
-10 -4 -5 3 -10 0 -10 -7 -1 -8 -6 -6 -15 6 -12 16 -15 17 -15 4 0 -11 -8 -15
-25 -14 -19 1 -25 7 -26 26 -1 16 -3 19 -6 8 -2 -10 -10 -15 -19 -11 -10 4
-14 -2 -14 -20 0 -14 -8 -31 -17 -36 -16 -9 -16 -12 -3 -21 8 -5 10 -10 5 -10
-6 0 -18 9 -28 20 -9 11 -27 20 -39 21 -13 0 -17 3 -10 6 24 10 11 22 -18 17
-19 -4 -30 -2 -30 5 0 6 6 11 14 11 8 0 18 5 22 12 4 7 3 8 -5 4 -6 -4 -13 0
-16 8 -3 9 -7 23 -10 31 -7 22 -45 -3 -46 -30 0 -17 -2 -16 -10 5 -6 14 -11
29 -12 34 -3 15 -38 48 -44 42 -3 -3 0 -13 8 -23 8 -9 9 -14 2 -10 -6 4 -15 2
-19 -4 -4 -8 -9 -7 -15 2 -6 10 -11 11 -19 3 -14 -14 -76 -2 -94 17 -8 9 -6
11 10 7 12 -3 21 0 21 6 0 7 -13 10 -34 8 -18 -2 -30 -8 -27 -13 3 -5 0 -9 -5
-9 -6 0 -11 5 -11 12 0 9 -3 9 -12 0 -7 -7 -22 -12 -34 -12 -12 0 -24 -4 -26
-8 -5 -13 -58 -24 -58 -13 0 5 8 12 18 14 9 3 1 5 -18 6 -28 1 -32 4 -20 12
12 8 10 9 -10 5 -14 -3 -36 -6 -50 -7 l-25 -1 25 -7 25 -8 -29 -14 c-20 -10
-31 -10 -33 -3 -5 14 -82 1 -113 -18 -16 -10 -22 -10 -28 -1 -5 9 -20 9 -57 1
-35 -8 -54 -7 -67 1 -23 15 -28 14 -22 -3 5 -13 -8 -16 -113 -28 -7 -1 -13 -5
-13 -10 0 -5 13 -7 30 -3 16 3 37 2 45 -3 13 -7 1 -13 -47 -25 -35 -8 -71 -18
-80 -22 -10 -4 -18 -3 -18 2 0 5 14 14 32 21 31 11 31 12 13 26 -11 7 -26 11
-34 8 -12 -4 -11 -7 3 -12 15 -5 15 -7 -6 -18 -16 -9 -32 -10 -48 -4 l-24 9
22 12 c12 6 22 17 22 23 0 6 -9 3 -20 -7 -11 -10 -26 -15 -35 -11 -13 4 -16 1
-13 -17 2 -17 11 -23 36 -25 36 -4 44 -22 10 -23 -13 0 -17 -3 -10 -6 21 -8
13 -25 -9 -18 -17 6 -20 4 -15 -13 9 -28 -3 -52 -28 -53 -14 0 -16 -2 -6 -6
27 -10 40 -25 33 -37 -4 -6 -8 -18 -8 -26 0 -8 -4 -21 -8 -27 -5 -8 -3 -13 5
-14 7 -1 2 -5 -12 -9 -22 -7 -21 -8 13 -9 26 -1 37 -6 37 -16 0 -8 -8 -15 -17
-15 -15 0 -16 2 -3 10 8 5 11 10 5 10 -12 -1 -45 -25 -45 -34 0 -3 7 -6 15 -6
13 0 35 -28 35 -45 0 -3 -10 -3 -22 1 -22 6 -22 6 2 -14 21 -18 23 -23 10 -32
-13 -8 -13 -10 -1 -10 11 0 9 -4 -5 -15 -18 -15 -18 -15 0 -8 13 4 17 3 12 -5
-11 -17 13 -92 29 -92 8 0 16 4 19 9 3 5 14 7 25 4 17 -4 17 -6 -5 -30 -24
-26 -22 -52 5 -54 9 -1 5 -4 -9 -9 -17 -5 -8 -7 31 -5 53 2 99 20 99 38 0 5 8
7 18 6 9 -1 25 1 35 6 36 15 40 -11 5 -34 -33 -22 -33 -23 -6 -18 17 3 33 -2
40 -11 11 -13 10 -14 -9 -8 -12 4 -24 2 -28 -4 -4 -6 4 -10 20 -10 15 0 24 -4
20 -10 -3 -5 -17 -10 -31 -10 -14 0 -23 -4 -19 -9 3 -6 -4 -15 -16 -21 -11 -7
-18 -14 -16 -17 3 -2 19 3 36 11 37 20 51 20 51 2 0 -9 7 -12 18 -10 9 3 37
-2 61 -11 24 -8 73 -16 110 -16 51 -1 59 -3 36 -9 -25 -7 -24 -7 11 -4 22 2
54 -1 70 -6 16 -4 22 -9 14 -9 -13 -1 -13 -2 0 -11 22 -14 40 -12 40 5 0 10
10 15 28 15 21 0 24 -2 12 -10 -10 -7 -11 -10 -2 -10 7 0 15 7 18 15 4 8 15
15 25 15 10 0 19 4 19 9 0 5 39 14 88 21 48 7 103 19 122 28 19 9 41 15 48 14
6 -2 12 4 12 13 0 9 5 13 11 10 6 -4 8 -13 5 -21 -3 -8 1 -14 8 -14 7 0 19 18
26 39 9 28 19 41 34 43 31 5 68 81 58 121 -10 39 31 127 60 127 16 0 24 23 19
54 -4 18 11 46 24 46 8 0 17 -11 21 -25 4 -15 16 -28 29 -31 12 -3 28 -16 35
-30 8 -13 17 -24 22 -24 4 0 8 -9 8 -21 0 -15 5 -19 19 -14 13 4 20 0 24 -17
4 -12 2 -27 -4 -34 -6 -8 -6 -13 0 -16 6 -2 5 -30 -3 -75 -6 -39 -8 -69 -4
-67 10 6 11 -20 1 -29 -4 -4 -7 -50 -8 -102 -1 -52 2 -90 6 -83 4 7 14 -2 25
-23 14 -26 19 -30 22 -16 3 13 9 16 23 12 27 -9 72 -52 65 -63 -3 -5 1 -20 9
-35 7 -14 16 -41 19 -59 l7 -33 -15 31 c-23 50 -36 51 -33 2 4 -53 0 -68 -19
-61 -8 3 -14 0 -14 -6 0 -6 -13 -11 -29 -11 -17 0 -31 -6 -35 -16 -3 -9 -11
-12 -18 -8 -8 5 -9 2 -5 -11 5 -11 1 -22 -10 -31 -13 -9 -15 -16 -7 -24 9 -8
9 -18 0 -36 -10 -21 -17 -24 -73 -24 -50 0 -63 3 -63 16 0 8 -5 12 -11 9 -6
-4 -8 -13 -6 -19 4 -9 -2 -11 -19 -8 -13 2 -31 1 -40 -2 -15 -6 -15 -8 1 -26
10 -11 16 -20 13 -20 -13 0 -57 27 -53 32 3 3 -6 3 -20 1 -28 -6 -58 14 -51
33 8 20 -41 47 -62 35 -15 -10 -15 -10 3 -11 18 -1 17 -2 -4 -11 -13 -5 -45
-9 -71 -8 -44 2 -49 4 -54 30 -6 32 18 123 38 141 7 7 11 21 8 31 -3 12 2 20
17 24 12 3 21 13 21 23 0 10 12 28 28 40 l27 22 3 -21 c2 -12 7 -21 12 -21 11
0 24 39 16 47 -11 11 -111 9 -153 -3 -23 -6 -44 -9 -47 -6 -4 3 -6 -2 -6 -11
0 -17 -53 -60 -63 -51 -3 3 -10 -4 -17 -15 -6 -12 -17 -21 -25 -21 -8 0 -15
-4 -15 -10 0 -5 -7 -10 -16 -10 -12 0 -15 -7 -11 -25 2 -14 2 -23 -1 -20 -3 2
-11 -4 -19 -14 -7 -11 -29 -25 -48 -31 -19 -6 -37 -20 -40 -30 -3 -10 -16 -20
-28 -22 -14 -2 -23 -11 -25 -25 -3 -18 -10 -23 -35 -23 -31 0 -57 -19 -70 -51
-4 -10 -6 -9 -6 4 -1 9 -8 17 -16 17 -17 0 -20 -16 -5 -25 13 -8 12 -16 0 -35
-9 -13 -12 -13 -24 2 -12 17 -14 17 -31 -2 -11 -12 -15 -26 -10 -37 6 -17 7
-17 21 1 12 18 14 18 14 2 0 -9 -5 -22 -10 -29 -6 -7 -17 -21 -25 -32 -14 -19
-14 -18 -15 13 0 30 -2 32 -25 26 -15 -4 -25 -2 -25 5 0 6 -8 11 -17 11 -17
-1 -17 -2 1 -15 19 -15 14 -35 -10 -35 -8 0 -14 -4 -14 -9 0 -4 -12 -6 -26 -3
-19 3 -25 1 -22 -8 2 -7 -7 -24 -20 -37 -16 -16 -21 -28 -14 -36 14 -18 23
-77 12 -78 -32 -5 -35 -3 -33 41 1 25 -1 34 -4 20 -6 -33 -30 -58 -51 -56 -9
2 -2 -2 16 -7 25 -8 31 -15 26 -29 -3 -10 -1 -18 5 -18 6 0 11 -4 11 -10 0 -5
-3 -9 -7 -9 -31 5 -44 -3 -41 -23 2 -17 -3 -24 -20 -26 -12 -2 -20 -8 -17 -13
4 -5 1 -9 -4 -9 -6 0 -11 7 -11 15 0 8 7 15 16 15 9 0 14 6 11 13 -2 6 -8 11
-13 11 -5 -1 -24 -4 -42 -8 -20 -3 -31 -2 -27 4 3 5 -8 2 -24 -8 -33 -18 -40
-32 -16 -32 8 0 15 6 15 13 0 9 3 8 9 -2 7 -10 10 -10 13 -1 6 19 44 -4 51
-29 4 -15 -3 -24 -25 -36 -28 -13 -30 -13 -35 4 -3 13 -11 17 -24 14 -25 -7
-24 -23 1 -23 11 0 20 -7 20 -15 0 -9 -6 -12 -17 -8 -13 5 -15 2 -10 -11 4
-10 7 -19 7 -22 0 -2 7 -1 15 2 8 4 15 13 15 21 0 10 7 14 20 10 11 -3 18 -2
16 2 -3 4 4 13 16 20 18 11 19 10 13 -9 -6 -19 -5 -21 13 -11 13 7 23 7 27 2
3 -6 -11 -13 -32 -16 -63 -11 -73 -16 -73 -35 0 -11 -8 -24 -17 -29 -13 -8 3
-9 57 -6 72 4 74 4 46 -11 -17 -8 -35 -13 -42 -10 -7 3 -18 -2 -24 -9 -7 -8
-17 -12 -23 -8 -6 3 -7 1 -3 -5 4 -6 13 -9 21 -5 8 3 15 0 15 -6 0 -6 -7 -11
-16 -11 -8 0 -12 -5 -9 -10 4 -7 13 -6 26 1 27 14 36 4 15 -16 -21 -22 -21
-21 17 -34 29 -10 30 -9 13 4 -19 14 -19 15 8 15 15 0 25 -4 21 -10 -3 -5 -1
-10 5 -10 6 0 8 -5 4 -11 -3 -6 -17 -8 -30 -5 -25 7 -34 -8 -11 -17 10 -4 10
-6 0 -6 -7 -1 -13 -5 -13 -10 0 -5 10 -7 23 -4 16 3 18 2 8 -5 -11 -8 -11 -11
0 -16 8 -3 -2 -3 -21 0 l-35 6 28 -26 c15 -14 38 -26 50 -26 18 0 19 -2 7 -10
-13 -9 -12 -12 5 -22 19 -12 19 -12 -5 -19 -23 -6 -22 -7 9 -8 29 -1 32 -3 21
-16 -10 -13 -9 -15 11 -15 17 0 20 -3 10 -9 -11 -7 -11 -9 0 -14 10 -4 9 -6
-3 -6 -10 -1 -18 -5 -18 -10 0 -5 9 -7 19 -4 15 4 20 -1 23 -18 2 -13 10 -24
18 -25 9 0 10 1 3 3 -7 3 -13 9 -13 14 0 12 3 12 36 -6 20 -10 23 -15 12 -15
-11 0 -18 -8 -18 -19 0 -11 -5 -23 -11 -26 -7 -5 -3 -15 11 -30 12 -13 19 -28
15 -34 -3 -6 1 -21 9 -33 21 -29 21 -48 0 -22 -14 18 -15 18 -8 -6 8 -33 45
-70 51 -52 9 24 19 11 20 -29 2 -47 10 -60 23 -39 8 12 10 10 10 -8 0 -15 4
-21 12 -16 6 4 8 3 5 -3 -9 -14 13 -75 31 -89 9 -7 13 -18 9 -28 -11 -27 15
-94 38 -100 19 -5 52 -76 35 -76 -18 0 -70 33 -65 41 4 5 1 17 -4 26 -10 17
-10 17 -11 -1 0 -10 -8 -24 -17 -31 -15 -11 -15 -15 -4 -29 7 -9 17 -13 22
-10 5 3 9 1 9 -4 0 -5 -9 -12 -20 -15 -20 -5 -29 -37 -10 -37 6 0 10 6 10 14
0 11 5 12 24 3 13 -7 22 -15 20 -18 -5 -8 21 -30 32 -28 5 1 16 1 24 0 13 -1
13 -3 1 -10 -12 -8 -9 -11 12 -16 15 -4 27 -11 27 -16 0 -6 -8 -5 -19 1 -11 5
-28 10 -37 10 -10 0 -25 7 -33 14 -11 10 -21 12 -31 6 -12 -8 -12 -10 4 -10
14 0 16 -3 7 -14 -6 -7 -9 -21 -5 -30 3 -9 1 -16 -5 -16 -6 0 -11 7 -11 16 0
8 -5 12 -10 9 -6 -4 -10 -3 -9 2 1 4 -2 23 -6 41 -6 25 -13 32 -31 32 -13 0
-24 5 -24 10 0 6 7 10 15 10 8 0 15 5 15 10 0 16 -27 12 -34 -5 -8 -22 -21
-18 -35 11 -9 21 -14 24 -26 14 -12 -10 -20 -6 -42 20 -16 18 -32 40 -37 49
-5 9 -15 22 -22 28 -7 7 -22 39 -35 70 -17 46 -23 89 -28 200 -3 78 -9 144
-12 148 -3 3 -15 -16 -25 -42 -22 -55 -24 -187 -5 -290 15 -80 89 -248 148
-338 65 -98 287 -316 398 -391 50 -34 126 -75 170 -92 44 -17 125 -53 180 -81
55 -28 105 -51 111 -51 20 0 140 -58 154 -75 7 -9 27 -23 42 -31 29 -15 31
-14 71 23 23 21 82 58 131 83 49 25 106 60 125 79 20 18 86 75 146 126 303
255 499 535 567 811 27 111 30 293 6 367 -10 29 -12 49 -6 53 5 3 7 13 3 21
-5 14 -3 14 17 1 21 -14 33 -43 119 -283 17 -49 42 -113 54 -140 12 -28 37
-95 55 -150 41 -129 50 -288 27 -475 -9 -69 -19 -174 -22 -235 -11 -201 -35
-439 -55 -550 -11 -60 -21 -117 -22 -125 -1 -8 -5 80 -8 195 -7 250 -26 350
-64 335 -19 -9 -178 -41 -416 -86 -147 -27 -233 -46 -285 -60 -28 -8 -81 -21
-119 -29 -67 -13 -70 -13 -92 8 l-22 21 52 18 c28 10 99 32 157 49 125 35 244
80 248 93 4 14 -97 52 -153 58 -51 6 -49 7 -100 -57 -14 -17 -34 -30 -48 -30
-14 -1 -47 -16 -74 -34 -26 -18 -65 -35 -85 -37 -48 -4 -79 -17 -115 -46 -32
-27 -90 -43 -99 -28 -3 6 -21 10 -40 10 -18 0 -54 9 -80 20 -48 21 -100 27
-91 11 4 -5 0 -11 -6 -14 -7 -2 -10 -8 -6 -12 12 -13 168 -44 168 -34 0 21 16
7 18 -16 2 -24 -13 -35 -20 -16 -9 28 -458 34 -458 7 0 -6 -4 -5 -9 3 -7 11
-26 12 -92 7 -46 -4 -100 -7 -119 -7 -19 0 -70 1 -112 1 -56 0 -81 5 -93 16
-8 8 -15 11 -15 6 0 -5 -24 -9 -52 -8 l-53 1 -8 -95 c-9 -121 -1 -240 23 -333
32 -120 130 -411 144 -425 9 -9 20 -10 42 -2 16 5 43 11 59 13 73 8 337 106
477 178 106 53 117 57 97 32 -12 -14 -12 -16 1 -11 8 3 15 14 15 25 1 23 107
123 132 123 9 0 13 3 9 7 -4 4 -24 6 -44 4 -49 -3 -89 27 -98 75 -3 19 -4 37
-2 40 3 2 26 -15 53 -38 52 -46 141 -92 157 -82 6 4 9 33 5 73 l-5 66 25 -56
c23 -53 27 -57 64 -62 22 -3 55 -1 74 4 20 6 39 7 45 4 5 -3 21 15 36 40 14
25 28 44 30 42 2 -2 1 -25 -2 -50 -5 -31 -12 -47 -21 -47 -8 0 -11 -4 -8 -10
9 -15 42 -12 49 5 9 24 32 18 82 -20 25 -19 68 -45 96 -57 34 -15 45 -24 36
-29 -9 -6 -5 -9 12 -10 14 0 36 -2 50 -5 26 -4 61 -9 120 -17 19 -2 99 -10
177 -17 132 -12 140 -14 130 -31 -6 -10 -18 -20 -27 -23 -8 -2 6 -4 33 -5 50
-1 65 15 20 22 -16 2 -2 5 29 6 31 0 63 4 72 7 14 5 16 -4 16 -68 0 -114 -123
-593 -258 -1003 -82 -247 -232 -656 -291 -791 -16 -38 -50 -121 -74 -184 -25
-63 -72 -176 -106 -250 -34 -74 -66 -144 -71 -155 -63 -141 -91 -195 -100
-195 -12 0 -90 118 -90 137 0 6 -10 19 -21 27 -54 37 -267 363 -478 731 -46
79 -334 654 -404 805 -55 119 -106 228 -140 300 -19 41 -61 131 -92 200 -32
69 -66 143 -77 165 -11 22 -33 74 -49 115 -16 41 -34 84 -39 95 -5 11 -26 63
-46 115 -115 302 -165 510 -239 973 -19 122 -40 252 -46 288 -7 37 -10 110 -7
162 7 134 41 202 124 253 38 23 7 22 -39 -2 -27 -13 -56 -24 -66 -24 -9 0 -47
-18 -84 -40 -36 -22 -70 -40 -75 -40 -6 0 -32 -15 -59 -33 -107 -72 -534 -293
-633 -327 -116 -40 -350 -172 -369 -208 -14 -28 -50 -210 -60 -307 -11 -100
-15 -179 -36 -765 -14 -367 -47 -969 -60 -1095 -3 -27 -10 -124 -15 -215 -5
-91 -24 -262 -42 -380 -30 -203 -32 -230 -31 -477 1 -250 0 -263 -18 -263 -25
0 -42 -35 -35 -74 13 -76 19 -96 32 -107 25 -20 15 -32 -12 -14 -14 9 -49 23
-77 32 -29 8 -57 19 -64 25 -17 14 -26 -9 -11 -31 17 -24 64 -63 106 -86 33
-20 42 -35 19 -35 -8 0 -23 -10 -35 -23 l-21 -23 24 -29 c13 -17 31 -37 40
-46 25 -26 17 -32 -17 -11 -94 56 -96 56 -123 44 -20 -9 -24 -16 -17 -25 6 -6
14 -30 18 -52 4 -22 20 -68 35 -102 54 -119 59 -135 59 -204 0 -37 4 -70 10
-74 5 -3 7 -12 3 -20 -3 -8 -2 -27 2 -42 5 -21 8 -24 16 -12 13 20 12 -7 -1
-31 -18 -33 -46 -42 -78 -26 -19 10 -32 12 -39 5 -15 -15 -48 38 -34 55 9 11
1 15 -39 20 -34 5 -58 15 -75 32 -14 14 -25 22 -25 19 0 -10 83 -170 92 -176
4 -3 10 -27 14 -55 3 -27 9 -58 14 -69 22 -51 40 -122 40 -154 1 -42 25 -114
40 -119 6 -2 10 -39 10 -89 0 -80 1 -84 20 -78 15 5 20 2 21 -12 2 -42 -3 -91
-16 -133 -22 -73 -28 -117 -13 -102 21 21 38 14 38 -18 0 -19 -9 -40 -23 -53
-39 -38 -94 -111 -101 -134 -4 -13 -12 -23 -17 -23 -17 0 -40 -28 -49 -59 -7
-25 -6 -28 11 -24 23 6 24 -6 4 -33 -8 -10 -15 -30 -15 -44 0 -14 -7 -45 -16
-69 -8 -24 -12 -51 -9 -59 3 -8 0 -31 -6 -49 -9 -29 -8 -40 7 -70 18 -32 18
-35 2 -47 -9 -6 -19 -30 -23 -51 -24 -144 -22 -140 -73 -157 -76 -26 -120 -28
-257 -13 -162 18 -245 19 -130 1 44 -7 96 -18 115 -24 20 -7 62 -14 94 -17 32
-3 65 -10 72 -16 7 -6 41 -13 74 -16 45 -4 64 -11 75 -26 12 -17 12 -22 -1
-34 -8 -8 -14 -19 -14 -25 0 -17 -70 -78 -90 -78 -20 0 -26 -16 -12 -37 13
-20 61 -27 80 -10 19 16 108 57 126 57 6 0 37 13 69 30 52 26 59 27 64 12 4
-9 15 -26 25 -36 10 -11 18 -25 18 -31 0 -11 -112 -205 -154 -267 -29 -42 -86
-82 -131 -91 -67 -13 -149 -37 -188 -55 -23 -10 -91 -27 -152 -36 -116 -19
-217 -47 -275 -78 l-35 -18 34 0 c35 0 110 18 124 30 4 4 28 4 53 0 25 -4 63
-4 85 0 27 5 44 3 56 -6 10 -7 36 -14 58 -14 31 0 49 -7 74 -30 30 -28 35 -30
50 -15 22 19 31 19 31 1 0 -8 5 -16 11 -18 17 -6 -11 -48 -74 -111 -32 -31
-55 -62 -52 -68 8 -12 170 -4 209 11 15 5 36 10 47 10 22 0 49 22 49 39 0 12
58 39 101 48 24 4 27 2 33 -35 4 -27 1 -49 -9 -68 -18 -36 -18 -62 0 -94 8
-14 14 -50 14 -80 l0 -55 -14 39 c-20 57 -33 66 -55 38 -10 -12 -20 -26 -22
-31 -2 -4 -45 -40 -97 -79 -59 -44 -99 -83 -107 -102 -7 -16 -18 -30 -24 -30
-5 0 -10 -6 -10 -14 0 -8 -7 -16 -15 -20 -8 -3 -15 -12 -15 -20 0 -8 -6 -17
-12 -20 -7 -3 -4 -4 8 -1 11 3 40 -1 63 -10 23 -8 45 -14 49 -13 4 1 14 -2 23
-6 10 -4 51 -3 94 3 95 14 129 7 120 -23 -4 -11 -13 -55 -21 -96 -8 -41 -18
-88 -24 -103 -5 -15 -7 -41 -3 -58 4 -19 0 -36 -9 -47 -17 -19 -49 -96 -53
-127 -4 -32 -15 -53 -31 -59 -8 -3 -14 -15 -14 -26 0 -15 7 -20 24 -20 30 0
42 -16 26 -35 -11 -13 399 -15 3287 -15 l3300 0 -4 24 c-3 14 -13 33 -22 43
-24 25 -71 113 -71 130 0 11 7 14 28 9 89 -20 126 -26 130 -21 3 3 -8 20 -25
38 -16 17 -53 65 -82 105 -28 40 -61 82 -72 93 -32 32 -21 53 28 57 37 3 42 7
48 31 7 33 -1 68 -27 128 -18 40 -16 71 6 85 14 9 8 131 -6 139 -6 4 -11 22
-12 40 -1 19 -9 49 -19 67 -17 31 -17 32 1 32 39 0 30 15 -36 58 -113 75 -147
116 -87 104 20 -3 27 0 31 15 5 17 16 19 94 21 l89 3 7 -28 c3 -15 7 -34 10
-41 2 -7 -3 -15 -11 -18 -34 -13 0 -22 73 -19 42 1 80 3 85 4 4 0 7 16 7 35 0
25 -5 35 -20 39 -16 4 -20 14 -20 49 0 23 -7 66 -15 93 -13 42 -14 57 -3 92
14 47 26 49 78 13 18 -13 31 -15 42 -9 12 7 24 2 46 -16 17 -14 43 -28 59 -31
l30 -6 -2 69 c-1 61 -11 92 -43 133 -7 9 -67 6 -74 -4 -3 -5 -26 11 -50 36
-54 54 -169 137 -198 143 -12 2 -27 8 -34 13 -6 5 -33 17 -61 27 -60 22 -115
60 -115 81 0 7 -4 14 -9 14 -5 0 -16 15 -24 33 -9 18 -32 42 -52 52 -35 20
-71 77 -60 95 7 12 83 5 170 -15 83 -20 200 -42 260 -51 28 -3 59 -11 70 -17
11 -6 45 -16 75 -22 30 -7 67 -16 83 -20 21 -5 27 -4 27 8 0 8 -11 18 -25 21
-14 4 -25 11 -25 16 0 13 0 13 46 -4 60 -20 114 -28 114 -16 0 12 -37 50 -49
50 -5 0 -32 16 -60 35 -28 19 -63 35 -78 36 -27 0 -28 1 -5 11 27 13 30 48 4
48 -10 0 -23 5 -30 12 -9 9 -5 14 20 22 58 20 44 33 -41 41 -43 4 -91 13 -106
21 -15 8 -33 14 -40 14 -7 0 -18 6 -25 14 -6 8 -18 12 -26 9 -17 -6 -54 23
-54 43 0 7 -19 19 -42 25 -68 20 -85 35 -119 109 l-11 25 -9 -22 c-4 -13 -16
-23 -24 -23 -25 0 -55 19 -55 35 0 7 -6 16 -12 18 -10 4 -10 6 0 6 7 1 4 9 -8
21 -22 22 -27 56 -9 62 10 3 15 41 18 130 1 22 8 29 46 41 42 15 46 14 70 -5
26 -20 75 -19 75 2 0 18 -45 40 -81 40 -20 0 -42 7 -49 15 -7 8 -21 15 -31 15
-11 0 -19 4 -19 9 0 5 -3 16 -6 25 -4 11 -1 16 10 16 18 0 22 26 4 32 -8 3 -6
12 5 29 9 14 19 57 22 99 8 94 41 304 56 350 6 19 15 51 19 70 4 19 13 49 19
65 6 17 27 84 47 150 20 66 46 152 59 190 13 39 33 106 45 150 12 44 26 84 31
89 5 6 9 25 9 43 0 18 4 41 10 51 17 30 71 214 68 231 -2 11 -10 8 -33 -15
-26 -26 -66 -61 -168 -144 -10 -8 -39 -34 -65 -57 -53 -48 -78 -56 -65 -20 13
38 5 84 -21 124 -30 44 -32 60 -10 85 16 16 15 22 -4 85 -22 72 -23 180 -2
286 15 73 12 104 -14 153 -23 43 -24 50 -20 227 7 303 -23 633 -87 982 -77
418 -152 844 -178 1015 -56 368 -72 483 -80 575 -17 184 -80 739 -90 792 -14
69 -33 113 -63 141 -14 13 -122 56 -264 106 -265 93 -349 128 -379 156 -35 32
-167 98 -245 121 -41 12 -93 30 -116 40 -22 10 -76 28 -120 40 -43 13 -88 31
-100 41 -11 10 -25 18 -30 18 -6 0 -21 11 -34 25 -13 14 -18 25 -12 25 7 0 20
-9 29 -20 10 -11 24 -20 32 -20 11 0 10 3 -4 13 -10 8 -35 61 -55 118 -27 77
-42 105 -56 108 -20 4 -64 46 -64 61 0 4 -8 23 -17 40 -14 25 -15 34 -5 37 14
5 17 43 3 43 -5 0 -12 -6 -14 -12 -4 -9 -6 -8 -6 2 -1 9 4 21 11 28 9 9 7 12
-10 12 -12 0 -22 4 -22 9 0 4 12 6 26 3 14 -2 23 -10 20 -17 -7 -20 37 -67 57
-60 29 12 21 45 -13 52 -16 3 -30 12 -30 19 0 8 -7 14 -15 14 -8 0 -15 7 -15
15 0 8 8 15 18 15 14 0 15 -2 2 -10 -8 -5 -10 -10 -4 -10 12 0 34 20 34 32 0
4 -7 8 -15 8 -8 0 -15 4 -15 10 0 5 6 9 13 7 6 -1 11 6 9 16 -3 20 9 22 26 5
16 -16 16 5 0 31 -9 15 -8 22 5 36 9 9 17 28 17 42 0 18 4 24 15 19 13 -5 14
-2 4 15 -8 17 -8 20 1 14 9 -5 10 -1 5 14 -5 16 -3 20 8 15 8 -3 18 -1 22 5 3
6 1 11 -4 11 -15 0 -14 19 5 79 9 28 21 48 25 45 12 -7 11 13 -1 37 -8 13 -8
24 0 37 9 14 10 13 6 -8 -3 -14 -3 -19 0 -12 3 6 10 10 15 6 14 -9 10 9 -8 36
-10 14 -13 25 -6 27 5 2 9 19 7 38 -1 20 1 33 6 30 4 -3 4 12 0 32 -7 29 -5
39 7 48 10 8 14 20 10 33 -3 12 -2 24 3 27 4 2 5 16 2 30 -4 22 -1 25 22 25
33 0 61 26 115 106 43 65 61 117 42 128 -6 4 -11 14 -11 23 0 12 3 13 14 4 12
-10 15 -6 21 21 4 18 9 41 12 52 4 13 1 16 -7 11 -7 -5 -35 -10 -62 -12 -48
-4 -48 -4 -48 27 0 23 6 33 25 40 26 10 32 24 15 35 -19 11 -10 33 16 39 19 5
24 11 19 26 -4 14 -2 20 9 20 10 0 13 6 9 18 -6 15 -5 15 11 3 12 -10 13 -16
6 -21 -8 -5 -10 -28 -5 -76 7 -58 9 -65 17 -44 6 14 7 104 4 210 -8 257 -8
259 14 336 19 67 26 176 14 208 -3 9 -15 16 -26 16 -10 0 -17 -4 -14 -8 2 -4
0 -14 -5 -22 -7 -11 -9 -7 -7 16 1 19 -4 38 -15 48 -20 20 -23 51 -4 40 6 -4
5 1 -4 12 -12 15 -15 39 -12 119 2 55 4 125 3 155 0 30 -1 112 -1 182 -1 71
-5 131 -10 134 -5 3 -9 22 -9 42 0 28 -3 33 -10 22 -7 -11 -8 -6 -4 17 3 17 1
48 -6 68 -6 20 -16 59 -20 88 -5 29 -12 65 -16 81 -5 21 -4 27 5 22 6 -4 11
-3 11 2 0 6 -7 13 -15 16 -13 4 -14 10 -5 26 6 12 8 31 4 43 -9 26 -6 57 8 74
6 7 8 19 5 27 -4 10 -1 13 9 9 17 -6 19 8 2 25 -9 9 -9 12 0 12 18 0 15 13 -8
38 -11 12 -20 24 -20 28 0 4 -8 16 -17 27 -17 19 -17 19 6 12 22 -7 23 -5 17
19 -5 21 -3 24 11 19 16 -6 17 -5 3 13 -8 10 -21 23 -27 27 -7 4 -13 12 -13
17 0 6 6 9 13 8 13 -3 13 5 2 35 -5 13 -3 16 8 12 8 -4 17 1 20 9 4 10 1 13
-9 9 -10 -4 -12 0 -8 11 3 9 14 16 23 16 14 1 14 2 -3 15 -20 15 -14 35 12 36
11 0 12 3 5 6 -15 6 -17 33 -3 33 6 0 10 11 10 25 0 14 5 25 10 25 6 0 10 5
10 10 0 6 -7 10 -15 10 -9 0 -20 12 -25 26 -14 35 -13 36 11 23 l21 -11 -18
34 c-11 18 -22 35 -27 36 -4 2 -13 9 -20 15 -31 30 -136 107 -145 107 -5 0
-31 24 -58 53 -27 28 -61 62 -74 73 -14 12 -37 37 -52 57 -30 38 -128 97 -163
97 -12 0 -36 14 -54 30 -17 17 -36 28 -41 25 -6 -3 -10 -2 -10 3 0 5 -14 12
-31 16 -17 3 -45 16 -62 28 -17 12 -27 17 -23 10 4 -7 3 -12 -2 -12 -5 0 -14
12 -21 27 -9 20 -15 23 -23 15 -15 -15 -38 -16 -38 -2 0 6 6 10 14 10 8 0 17
4 21 9 3 5 -10 9 -30 8 -23 -1 -35 -7 -35 -17 0 -12 -2 -12 -9 -2 -5 8 -21 12
-39 11 -18 -2 -38 3 -49 13 -16 15 -78 34 -185 57 -20 4 -44 15 -53 25 -11 10
-33 16 -66 16 -29 0 -49 4 -49 11 0 6 9 9 20 6 11 -3 23 -1 26 4 3 5 -9 9 -25
9 -17 0 -31 -4 -31 -10 0 -5 -7 -10 -16 -10 -14 0 -14 3 -4 15 16 19 11 19
-29 -1 -25 -13 -35 -13 -46 -4 -11 9 -15 10 -15 1 0 -7 -4 -10 -9 -7 -5 3 -28
0 -53 -8 -24 -7 -53 -10 -63 -6 -11 4 -23 2 -27 -4 -6 -8 -8 -7 -8 1 0 7 -7
10 -15 7 -9 -4 -15 0 -15 8 0 24 10 27 48 14 23 -8 46 -10 60 -5 30 11 28 16
-5 14 -16 -1 -20 0 -10 2 9 2 17 9 17 15 0 6 -18 7 -50 3 -47 -6 -50 -5 -60
19 -5 15 -17 26 -27 25 -11 0 -13 -3 -5 -6 10 -4 10 -8 0 -21 -11 -13 -10 -15
5 -9 9 3 17 2 17 -4 0 -6 -8 -9 -17 -7 -9 2 -15 7 -14 13 6 24 -94 32 -195 15
-60 -11 -154 -48 -154 -61 0 -7 -36 -23 -89 -40 l-23 -8 22 24 c13 14 32 27
42 31 10 3 16 9 13 14 -11 17 86 62 172 80 80 17 84 19 43 20 -43 2 -44 3 -17
13 15 6 27 14 27 19 0 10 3 10 -40 -9z m58 -100 c-10 -2 -28 -2 -40 0 -13 2
-5 4 17 4 22 1 32 -1 23 -4z m100 -4 c-12 -7 -24 -7 -35 0 -15 9 -12 10 17 10
29 0 32 -1 18 -10z m-181 -5 c-3 -3 -12 -4 -19 -1 -8 3 -5 6 6 6 11 1 17 -2
13 -5z m240 -40 c-3 -3 -12 -4 -19 -1 -8 3 -5 6 6 6 11 1 17 -2 13 -5z m671
-113 c11 -7 11 -9 -1 -14 -16 -6 -27 0 -27 15 0 10 11 10 28 -1z m-1351 -48
c-9 -9 -20 -13 -24 -9 -4 4 -1 11 7 16 25 16 35 11 17 -7z m-62 -43 c-3 -5
-11 -10 -16 -10 -6 0 -7 5 -4 10 3 6 11 10 16 10 6 0 7 -4 4 -10z m-36 -42 c0
-13 -59 -65 -59 -53 0 10 43 65 52 65 4 0 8 -6 7 -12z m-233 -260 c-9 -12 -16
-32 -17 -43 0 -11 -3 -14 -6 -7 -6 16 16 72 29 72 5 0 2 -10 -6 -22z m2404 -3
c7 -8 9 -15 6 -15 -4 0 -14 7 -22 15 -9 8 -11 15 -6 15 5 0 15 -7 22 -15z
m-2510 -105 c0 -5 -5 -10 -11 -10 -5 0 -7 5 -4 10 3 6 8 10 11 10 2 0 4 -4 4
-10z m-210 -328 c0 -15 -2 -15 -10 -2 -13 20 -13 33 0 25 6 -3 10 -14 10 -23z
m925 -10 c-3 -3 -11 0 -18 7 -9 10 -8 11 6 5 10 -3 15 -9 12 -12z m-1060 -272
c-3 -5 -12 -10 -18 -10 -7 0 -6 4 3 10 19 12 23 12 15 0z m140 -418 l-28 -27
23 33 c12 18 25 31 28 27 3 -3 -7 -18 -23 -33z m-148 -104 c-3 -7 -5 -2 -5 12
0 14 2 19 5 13 2 -7 2 -19 0 -25z m133 -22 c0 -3 -4 -8 -10 -11 -5 -3 -10 -1
-10 4 0 6 5 11 10 11 6 0 10 -2 10 -4z m-133 -73 c-3 -10 -5 -4 -5 12 0 17 2
24 5 18 2 -7 2 -21 0 -30z m119 -4 c-8 -19 -15 -29 -15 -22 -1 18 19 67 25 61
3 -3 -2 -21 -10 -39z m64 23 c0 -9 -35 -62 -41 -62 -4 0 -3 15 2 32 5 18 9 33
9 34 0 0 7 1 15 1 8 0 15 -2 15 -5z m2210 -52 c0 -5 -4 -10 -10 -10 -5 0 -10
5 -10 10 0 6 5 10 10 10 6 0 10 -4 10 -10z m-2219 -111 c-6 -16 -10 -18 -10
-7 -1 22 12 55 16 42 2 -6 -1 -22 -6 -35z m156 -1 c-3 -8 -6 -5 -6 6 -1 11 2
17 5 13 3 -3 4 -12 1 -19z m-127 5 c0 -5 -5 -15 -10 -23 -8 -12 -10 -11 -10 8
0 12 5 22 10 22 6 0 10 -3 10 -7z m2199 -37 c8 -9 8 -16 2 -20 -6 -4 -15 3
-21 14 -12 23 2 27 19 6z m-2131 -37 c-18 -12 -23 8 -6 28 12 15 13 15 16 -2
2 -10 -2 -21 -10 -26z m2072 16 c0 -13 -4 -14 -20 -5 -11 6 -20 13 -20 15 0 3
9 5 20 5 11 0 20 -7 20 -15z m-2223 -37 c-3 -8 -6 -5 -6 6 -1 11 2 17 5 13 3
-3 4 -12 1 -19z m2063 1 c0 -5 -4 -9 -10 -9 -5 0 -10 7 -10 16 0 8 5 12 10 9
6 -3 10 -10 10 -16z m-1953 -21 c-3 -8 -6 -5 -6 6 -1 11 2 17 5 13 3 -3 4 -12
1 -19z m63 12 c0 -5 -9 -14 -20 -20 -16 -8 -20 -8 -20 4 0 13 13 23 33 25 4 1
7 -3 7 -9z m-223 -52 c-3 -7 -5 -2 -5 12 0 14 2 19 5 13 2 -7 2 -19 0 -25z
m-34 -63 c5 -28 4 -34 -3 -20 -8 19 -14 73 -6 64 2 -2 6 -22 9 -44z m174 23
c-3 -8 -6 -5 -6 6 -1 11 2 17 5 13 3 -3 4 -12 1 -19z m-133 -62 c-7 -28 -24
-36 -24 -11 0 8 5 15 10 15 6 0 10 8 10 17 0 9 2 14 5 11 4 -3 3 -17 -1 -32z
m856 10 c0 -11 -19 -15 -25 -6 -3 5 1 10 9 10 9 0 16 -2 16 -4z m500 0 c0 -2
-7 -7 -16 -10 -8 -3 -12 -2 -9 4 6 10 25 14 25 6z m75 -5 c3 -5 1 -12 -5 -16
-5 -3 -10 1 -10 9 0 18 6 21 15 7z m-1418 -68 c-3 -10 -5 -2 -5 17 0 19 2 27
5 18 2 -10 2 -26 0 -35z m1733 18 c0 -6 -4 -13 -10 -16 -5 -3 -10 1 -10 9 0 9
5 16 10 16 6 0 10 -4 10 -9z m-33 -43 c-3 -8 -6 -5 -6 6 -1 11 2 17 5 13 3 -3
4 -12 1 -19z m-67 2 c0 -5 -2 -10 -4 -10 -3 0 -8 5 -11 10 -3 6 -1 10 4 10 6
0 11 -4 11 -10z m-1650 -10 c0 -5 -4 -10 -10 -10 -5 0 -10 5 -10 10 0 6 5 10
10 10 6 0 10 -4 10 -10z m446 -15 c-10 -8 -24 -11 -29 -8 -6 4 -2 10 9 14 31
12 40 9 20 -6z m-49 -31 c-3 -3 -12 -4 -19 -1 -8 3 -5 6 6 6 11 1 17 -2 13 -5z
m1303 -29 c0 -8 -6 -15 -13 -15 -9 0 -12 -11 -9 -36 3 -24 0 -39 -9 -45 -11
-7 -10 -9 4 -9 9 0 17 7 17 16 0 8 4 13 9 10 16 -10 0 -43 -25 -55 -32 -14
-30 -15 -39 12 -16 50 -15 57 5 57 14 0 20 7 20 21 0 25 17 59 30 59 6 0 10
-7 10 -15z m-1683 -57 c-3 -8 -6 -5 -6 6 -1 11 2 17 5 13 3 -3 4 -12 1 -19z
m-20 -20 c-3 -7 -5 -2 -5 12 0 14 2 19 5 13 2 -7 2 -19 0 -25z m2 -66 c-2 -35
11 -111 21 -117 5 -3 14 19 20 48 13 54 29 75 42 54 11 -18 10 -29 -3 -21 -8
5 -10 -1 -5 -20 3 -14 8 -38 11 -53 4 -22 2 -21 -9 7 -13 33 -13 29 -8 -54 4
-74 3 -88 -9 -84 -11 4 -14 -3 -11 -36 l2 -41 -15 40 c-8 22 -15 50 -15 62 0
15 -5 21 -14 17 -19 -7 -24 4 -35 82 -8 50 -7 70 1 76 7 3 12 22 12 42 0 19 4
32 9 29 4 -3 7 -17 6 -31z m1596 8 c-3 -5 -12 -7 -20 -3 -21 7 -19 13 6 13 11
0 18 -4 14 -10z m-1621 -25 c-4 -8 -8 -15 -10 -15 -2 0 -4 7 -4 15 0 8 4 15
10 15 5 0 7 -7 4 -15z m1723 -1 c-3 -3 -12 -4 -19 -1 -8 3 -5 6 6 6 11 1 17
-2 13 -5z m-1796 -77 c-8 -8 -11 -7 -11 4 0 20 13 34 18 19 3 -7 -1 -17 -7
-23z m36 -9 c-3 -8 -6 -5 -6 6 -1 11 2 17 5 13 3 -3 4 -12 1 -19z m3051 -149
c-10 -7 -10 -9 2 -9 13 0 15 -14 13 -82 -4 -109 -12 -168 -23 -168 -6 0 -6 9
-1 23 10 27 10 210 0 217 -4 3 -2 28 4 55 l12 50 3 -39 c2 -25 -2 -42 -10 -47z
m-2497 61 c13 -8 25 -7 39 0 12 6 33 10 48 8 l27 -3 -30 -16 c-16 -9 -51 -19
-76 -21 -42 -5 -45 -3 -43 16 1 12 3 22 3 24 2 4 13 2 32 -8z m2619 -56 c0 -7
3 -19 6 -28 3 -9 1 -16 -5 -16 -6 0 -11 9 -11 19 0 11 -4 23 -10 26 -5 3 -10
16 -10 28 1 22 1 22 15 3 8 -11 15 -25 15 -32z m-2710 20 c0 -8 -5 -12 -10 -9
-6 4 -8 11 -5 16 9 14 15 11 15 -7z m270 -18 c0 -23 -16 -27 -47 -15 l-28 12
25 7 c39 12 50 11 50 -4z m-165 -6 c-3 -5 -12 -10 -18 -10 -7 0 -6 4 3 10 19
12 23 12 15 0z m231 -37 c-1 -13 8 -19 29 -21 17 -2 35 -8 40 -14 7 -7 -3 -9
-34 -5 -50 6 -64 17 -55 40 8 22 22 22 20 0z m-166 -3 c0 -5 -4 -10 -10 -10
-5 0 -10 5 -10 10 0 6 5 10 10 10 6 0 10 -4 10 -10z m-491 -48 c1 -7 -3 -10
-9 -7 -5 3 -10 18 -9 33 0 24 1 25 9 7 5 -11 9 -26 9 -33z m451 38 c0 -5 -7
-10 -15 -10 -8 0 -15 5 -15 10 0 6 7 10 15 10 8 0 15 -4 15 -10z m-516 -34
c-3 -8 -1 -17 5 -21 6 -3 15 4 20 17 7 16 10 18 10 6 1 -9 -3 -20 -9 -23 -5
-3 -7 -20 -4 -38 4 -30 3 -29 -16 11 -11 24 -17 48 -14 53 8 14 14 11 8 -5z
m732 -96 c41 -16 17 -33 -25 -19 -24 9 -29 14 -19 20 16 11 12 11 44 -1z
m2281 -152 c-3 -7 -5 -2 -5 12 0 14 2 19 5 13 2 -7 2 -19 0 -25z m-534 -27
c-4 -16 -9 -17 -39 -8 -19 6 -34 13 -34 17 0 11 34 8 48 -3 11 -8 12 -5 7 19
-6 27 -5 28 8 11 8 -10 13 -26 10 -36z m39 17 c-6 -6 -15 -8 -19 -4 -4 4 -1
11 7 16 19 12 27 3 12 -12z m108 -28 c0 -5 -2 -10 -4 -10 -3 0 -8 5 -11 10 -3
6 -1 10 4 10 6 0 11 -4 11 -10z m378 -37 c-2 -13 -6 -10 -16 11 -7 15 -8 24
-2 21 5 -3 11 0 11 7 1 7 3 5 6 -4 2 -10 3 -26 1 -35z m-448 27 c0 -5 -5 -10
-11 -10 -5 0 -7 5 -4 10 3 6 8 10 11 10 2 0 4 -4 4 -10z m377 -72 c-3 -8 -6
-5 -6 6 -1 11 2 17 5 13 3 -3 4 -12 1 -19z m-1380 -294 c-3 -3 -12 -4 -19 -1
-8 3 -5 6 6 6 11 1 17 -2 13 -5z m-322 -16 c14 2 12 -2 -10 -14 -27 -16 -28
-18 -10 -25 11 -4 16 -8 10 -8 -5 -1 -3 -6 5 -11 8 -5 23 -7 32 -4 14 4 16 1
11 -13 -9 -26 -44 -63 -60 -63 -7 0 -13 10 -14 23 l0 22 -9 -22 c-5 -13 -14
-23 -19 -23 -6 0 -8 7 -5 15 7 18 -7 20 -26 3 -8 -7 -5 -1 8 13 23 26 29 49
12 49 -5 0 -14 -9 -20 -20 -13 -24 -35 -27 -26 -4 4 9 1 23 -6 32 -11 13 -9
14 15 8 23 -5 27 -3 27 15 0 15 5 19 15 15 9 -3 18 1 21 9 4 8 11 12 18 8 6
-4 20 -6 31 -5z m240 -9 c11 -17 -1 -21 -15 -4 -8 9 -8 15 -2 15 6 0 14 -5 17
-11z m-215 -34 c0 -8 -4 -15 -10 -15 -5 0 -10 7 -10 15 0 8 5 15 10 15 6 0 10
-7 10 -15z m270 -58 c0 -5 -11 5 -25 21 -14 17 -25 34 -25 38 1 11 50 -48 50
-59z m-435 -7 c-3 -5 -11 -10 -16 -10 -6 0 -7 5 -4 10 3 6 11 10 16 10 6 0 7
-4 4 -10z m-469 -87 c-10 -10 -19 5 -10 18 6 11 8 11 12 0 2 -7 1 -15 -2 -18z
m884 -12 c-6 -12 -15 -21 -21 -21 -10 0 -5 13 14 38 15 19 20 7 7 -17z m-863
-13 c-3 -8 -6 -5 -6 6 -1 11 2 17 5 13 3 -3 4 -12 1 -19z m818 2 c-3 -5 -12
-7 -20 -3 -21 7 -19 13 6 13 11 0 18 -4 14 -10z m27 -42 c-7 -7 -12 -20 -12
-30 0 -10 -4 -18 -8 -18 -5 0 -13 -10 -19 -22 -10 -22 -10 -22 -15 5 -3 15 -1
30 5 34 6 4 7 1 2 -7 -5 -9 -4 -11 4 -6 9 6 9 11 -1 24 -8 9 -8 13 -2 9 7 -4
14 0 18 8 3 8 13 15 23 15 13 0 14 -3 5 -12z m-835 -20 c-3 -8 -6 -5 -6 6 -1
11 2 17 5 13 3 -3 4 -12 1 -19z m893 1 c0 -11 -4 -18 -9 -15 -5 3 -12 -1 -15
-10 -4 -9 -9 -14 -12 -11 -5 5 24 57 32 57 2 0 4 -9 4 -21z m60 -9 c-10 -19
-30 -28 -30 -14 0 6 30 33 38 34 1 0 -2 -9 -8 -20z m-962 -25 c-3 -3 -9 2 -12
12 -6 14 -5 15 5 6 7 -7 10 -15 7 -18z m-118 -19 c0 -9 -7 -12 -20 -9 -11 3
-20 9 -20 14 0 5 9 9 20 9 11 0 20 -6 20 -14z m995 -6 c3 -5 1 -10 -4 -10 -6
0 -11 5 -11 10 0 6 2 10 4 10 3 0 8 -4 11 -10z m-1013 -43 c-12 -7 -19 -17
-15 -21 4 -4 0 -12 -10 -17 -9 -6 -17 -17 -17 -24 0 -8 -4 -15 -9 -15 -5 0
-17 -7 -26 -16 -9 -9 -19 -13 -23 -10 -3 4 0 11 8 16 12 8 11 10 -5 11 -16 0
-17 2 -4 7 30 13 71 51 65 61 -4 5 4 12 16 14 40 8 43 7 20 -6z m15 -49 c-3
-7 -5 -2 -5 12 0 14 2 19 5 13 2 -7 2 -19 0 -25z m-26 -31 c-10 -9 -11 -8 -5
6 3 10 9 15 12 12 3 -3 0 -11 -7 -18z m326 -39 c-3 -8 -6 -5 -6 6 -1 11 2 17
5 13 3 -3 4 -12 1 -19z m303 -35 c12 -2 34 4 50 12 25 13 29 13 34 -1 4 -10 2
-13 -6 -8 -7 4 -8 3 -4 -4 5 -9 13 -9 27 -1 12 6 23 8 27 5 3 -3 0 -6 -7 -6
-7 0 -10 -4 -6 -10 4 -6 15 -6 30 0 20 8 25 6 25 -6 0 -9 -5 -12 -12 -8 -6 4
-8 3 -4 -4 3 -5 0 -12 -6 -15 -7 -3 7 -2 31 1 38 4 43 3 38 -11 -4 -11 -1 -17
9 -17 8 0 13 -4 9 -9 -3 -5 0 -13 6 -16 7 -5 9 1 7 16 -2 19 2 24 19 24 12 0
25 4 29 7 3 4 21 0 38 -9 17 -10 34 -16 38 -15 14 4 -4 -27 -19 -32 -11 -4
-13 -2 -9 9 7 20 -4 19 -21 -2 -8 -10 -12 -12 -8 -5 8 17 -15 15 -60 -4 -24
-10 -40 -12 -44 -6 -4 7 -13 6 -23 -2 -10 -7 -15 -16 -11 -19 10 -11 25 -8 18
3 -7 12 2 12 30 0 18 -7 18 -8 -7 -15 -16 -4 -34 -5 -42 -2 -10 4 -13 1 -10
-7 3 -7 -2 -20 -10 -29 -8 -8 -12 -18 -8 -21 3 -4 0 -11 -8 -16 -8 -5 -11 -12
-7 -17 5 -4 11 -3 15 3 4 6 15 13 25 17 15 5 16 2 11 -21 -4 -15 -11 -29 -17
-31 -5 -2 -19 -14 -30 -27 -19 -22 -22 -23 -39 -8 -14 14 -20 14 -33 4 -9 -7
-19 -10 -22 -6 -4 4 -1 11 7 16 12 8 10 10 -7 10 -36 0 -37 20 -1 21 31 0 31
1 10 10 -15 5 -30 5 -42 -1 -10 -6 -38 -11 -62 -11 -24 -1 -33 -4 -20 -6 32
-6 27 -16 -18 -35 -30 -14 -38 -22 -33 -35 6 -15 5 -16 -9 -3 -9 8 -14 18 -12
22 2 3 -2 9 -8 11 -7 3 0 6 16 6 26 1 28 4 24 31 -3 17 -1 30 4 30 5 0 6 5 3
10 -14 22 -27 8 -23 -25 3 -25 0 -35 -10 -35 -9 0 -13 7 -9 20 3 14 0 20 -10
20 -13 0 -13 3 -3 15 10 12 10 15 0 15 -9 0 -7 7 6 22 19 21 19 21 -2 16 -12
-3 -28 -2 -35 3 -11 7 -11 9 2 9 9 0 19 9 22 20 3 11 1 18 -3 15 -5 -3 -11 -1
-15 5 -3 5 0 10 7 10 9 0 9 3 -2 10 -11 7 -11 10 -2 10 7 0 11 4 8 9 -4 5 4 7
16 5 13 -2 17 -2 10 2 -6 3 -10 10 -6 15 3 5 0 9 -5 9 -6 0 -11 5 -11 10 0 6
6 10 14 10 8 0 17 9 21 19 6 20 39 37 63 33 6 -2 12 4 12 12 0 14 3 14 20 -1
10 -9 28 -18 40 -20z m-655 -3 c-54 -25 -100 -36 -91 -22 3 6 -2 13 -11 15
-13 3 -11 5 7 7 48 3 82 9 88 14 3 3 15 6 26 6 15 -1 9 -6 -19 -20z m356 -13
c-8 -8 -11 -7 -11 4 0 9 3 19 7 23 4 4 9 2 11 -4 3 -7 -1 -17 -7 -23z m-305
-2 c-11 -8 -27 -15 -35 -15 -9 0 -27 -3 -41 -7 -15 -3 -22 -2 -17 3 7 7 69 26
107 32 3 1 -4 -5 -14 -13z m424 -50 c0 -2 -7 -5 -15 -9 -9 -3 -15 0 -15 9 0 9
6 12 15 9 8 -4 15 -7 15 -9z m-455 -15 c-7 -12 -85 -33 -93 -26 -3 3 0 6 7 6
7 0 10 4 6 9 -3 5 9 12 27 14 18 2 39 5 46 5 7 1 10 -2 7 -8z m91 1 c12 10 13
8 7 -7 -3 -10 -11 -22 -16 -25 -21 -15 6 -31 42 -26 33 6 34 5 17 -8 -11 -8
-28 -15 -38 -15 -10 0 -18 -4 -18 -10 0 -5 -7 -7 -15 -4 -12 5 -13 10 -4 20 8
10 8 14 0 14 -6 0 -10 12 -9 28 2 33 10 51 16 34 3 -10 7 -10 18 -1z m954 -23
c0 -5 -4 -8 -10 -8 -5 0 -10 10 -10 23 0 18 2 19 10 7 5 -8 10 -18 10 -22z
m-1025 -8 c-3 -5 -13 -10 -21 -10 -8 0 -12 5 -9 10 3 6 13 10 21 10 8 0 12 -4
9 -10z m1065 0 c0 -5 -5 -10 -11 -10 -5 0 -7 5 -4 10 3 6 8 10 11 10 2 0 4 -4
4 -10z m-1087 -24 c31 -10 35 -15 21 -20 -9 -4 -20 -3 -23 2 -3 5 -19 14 -36
20 -16 6 -23 11 -15 11 8 0 32 -5 53 -13z m909 -28 c-8 -8 -9 -4 -5 13 4 13 8
18 11 10 2 -7 -1 -18 -6 -23z m-885 -14 c-3 -3 -12 -4 -19 -1 -8 3 -5 6 6 6
11 1 17 -2 13 -5z m103 -15 c0 -5 -7 -9 -15 -9 -8 0 -23 -5 -33 -11 -12 -8
-31 -8 -62 -1 -42 10 -43 10 -10 10 48 -2 101 12 95 23 -4 5 1 6 9 3 9 -3 16
-10 16 -15z m-163 -25 c-3 -3 -12 -4 -19 -1 -8 3 -5 6 6 6 11 1 17 -2 13 -5z
m163 -9 c0 -8 9 -15 20 -15 11 0 20 -4 20 -9 0 -6 -12 -6 -29 -1 -19 5 -33 4
-41 -3 -9 -9 -11 -8 -8 3 7 33 38 53 38 25z m714 -37 c-3 -13 -15 -31 -25 -40
-30 -29 -33 -20 -5 13 14 17 26 35 26 40 0 5 3 9 6 9 3 0 2 -10 -2 -22z m-857
-24 c-3 -3 -12 -4 -19 -1 -8 3 -5 6 6 6 11 1 17 -2 13 -5z m753 -35 c0 -5 -4
-7 -10 -4 -5 3 -10 0 -10 -8 0 -8 -7 -20 -15 -27 -12 -10 -15 -10 -15 4 0 9 5
16 10 16 6 0 10 7 10 15 0 8 7 15 15 15 8 0 15 -5 15 -11z m66 -27 c1 -7 0 -8
-3 -2 -3 7 -13 6 -29 -5 -26 -17 -31 -12 -11 10 14 17 39 15 43 -3z m42 -57
c-15 -27 -23 -34 -14 -11 5 15 3 17 -19 12 -17 -4 -25 -2 -25 7 0 9 12 13 34
13 31 -1 33 -3 24 -21z m82 -39 c0 -3 -4 -8 -10 -11 -5 -3 -10 -1 -10 4 0 6 5
11 10 11 6 0 10 -2 10 -4z m39 -37 c1 8 4 12 7 9 3 -4 1 -15 -5 -26 -8 -15 -7
-23 6 -33 15 -12 16 -11 11 9 -10 36 9 25 22 -13 6 -19 14 -34 18 -33 4 1 18
-3 32 -9 l25 -10 -25 -8 c-14 -5 -37 -9 -51 -9 -24 -1 -26 2 -18 22 7 19 5 24
-19 34 -15 6 -30 11 -34 10 -12 -3 -9 5 8 23 12 12 14 19 6 27 -8 8 -13 7 -18
-5 -3 -9 -11 -17 -17 -17 -6 0 0 11 13 25 22 24 25 24 31 8 5 -12 8 -13 8 -4z
m91 -54 c0 -17 -2 -18 -25 -9 -13 5 -14 8 -3 15 19 13 28 11 28 -6z m27 8 c-4
-3 -2 -12 4 -20 9 -9 8 -13 0 -13 -6 0 -11 2 -11 4 0 2 -3 11 -6 20 -4 10 -1
16 7 16 7 0 9 -3 6 -7z m66 -23 c-3 -11 0 -27 7 -35 11 -13 10 -14 -5 -9 -10
4 -21 1 -27 -7 -7 -10 -8 -7 -3 11 6 24 5 24 -9 6 -9 -11 -16 -15 -16 -9 0 7
5 15 11 18 6 4 8 13 5 21 -3 8 0 11 10 7 9 -3 14 1 14 12 0 9 4 14 9 11 5 -3
7 -15 4 -26z m36 -16 c-15 -18 -22 -13 -13 10 3 9 10 13 16 10 5 -3 4 -12 -3
-20z m99 1 c-3 -3 -9 2 -12 12 -6 14 -5 15 5 6 7 -7 10 -15 7 -18z m-1180 -17
c3 -37 -2 -35 -12 5 -3 15 -3 27 2 27 4 0 9 -14 10 -32z m682 -8 c0 -5 -2 -10
-4 -10 -3 0 -8 5 -11 10 -3 6 -1 10 4 10 6 0 11 -4 11 -10z m60 1 c0 -6 -4
-13 -10 -16 -5 -3 -10 1 -10 9 0 9 5 16 10 16 6 0 10 -4 10 -9z m116 -38 c-3
-4 -6 -1 -6 6 0 7 -4 9 -10 6 -6 -4 -7 1 -3 11 6 15 7 15 15 -1 6 -9 7 -19 4
-22z m74 -13 c0 -5 -5 -10 -11 -10 -5 0 -7 5 -4 10 3 6 8 10 11 10 2 0 4 -4 4
-10z m70 3 c0 -5 -14 -8 -31 -9 -20 -1 -26 2 -17 7 16 11 48 12 48 2z m17 -15
c-3 -8 -6 -5 -6 6 -1 11 2 17 5 13 3 -3 4 -12 1 -19z m-227 2 c0 -5 -10 -10
-22 -10 -19 0 -20 2 -8 10 19 13 30 13 30 0z m50 -19 c0 -6 -4 -13 -10 -16 -5
-3 -10 1 -10 9 0 9 5 16 10 16 6 0 10 -4 10 -9z m50 -5 c0 -3 -4 -8 -10 -11
-5 -3 -10 -1 -10 4 0 6 5 11 10 11 6 0 10 -2 10 -4z m30 -20 c0 -3 -4 -8 -10
-11 -5 -3 -10 -1 -10 4 0 6 5 11 10 11 6 0 10 -2 10 -4z m27 -43 c-3 -10 -5
-4 -5 12 0 17 2 24 5 18 2 -7 2 -21 0 -30z m-523 -373 c-6 -5 -24 21 -24 34 0
6 6 1 14 -10 8 -10 12 -21 10 -24z m-74 -10 c0 -5 -7 -7 -15 -4 -8 4 -12 10
-9 15 6 11 24 2 24 -11z m-116 -30 c-6 -5 -24 21 -24 34 0 6 6 1 14 -10 8 -10
12 -21 10 -24z m140 14 c3 -8 2 -12 -4 -9 -6 3 -10 10 -10 16 0 14 7 11 14 -7z
m-4 -46 c0 -6 -7 -5 -15 2 -8 7 -15 17 -15 22 0 6 7 5 15 -2 8 -7 15 -17 15
-22z m-317 10 c27 -16 37 -29 30 -41 -3 -4 -14 0 -25 10 -11 10 -23 17 -27 15
-3 -2 -7 4 -9 12 -4 19 1 20 31 4z m467 -38 c0 -13 -11 -13 -30 0 -12 8 -11
10 8 10 12 0 22 -4 22 -10z m175 -91 c11 -16 1 -19 -13 -3 -7 8 -8 14 -3 14 5
0 13 -5 16 -11z m-435 -15 c0 -17 -22 -14 -28 4 -2 7 3 12 12 12 9 0 16 -7 16
-16z m1880 -651 c0 -5 5 -37 10 -72 7 -51 6 -70 -6 -93 -10 -20 -12 -33 -5
-47 31 -56 24 -303 -9 -344 -18 -21 -24 -22 -256 -25 -218 -4 -236 -3 -230 13
3 9 6 20 6 25 0 4 14 13 30 20 22 9 28 16 20 25 -6 7 -21 10 -35 7 -25 -4 -35
11 -15 23 17 10 11 25 -9 25 -11 0 -33 -12 -50 -26 -26 -21 -34 -24 -46 -14
-12 10 -19 10 -33 -3 -23 -21 -69 -12 -51 9 9 11 7 14 -14 14 -15 0 -31 -9
-41 -25 -21 -32 -20 -42 4 -48 11 -3 20 -10 20 -16 0 -16 -59 8 -71 30 -8 16
-19 19 -54 16 -25 -2 -45 -1 -45 3 0 3 10 33 23 65 23 60 23 60 67 63 28 2 48
-1 55 -10 5 -7 27 -14 48 -15 32 -2 37 1 37 19 l0 21 23 -21 c18 -17 26 -19
35 -10 9 9 12 9 12 0 0 -16 30 -16 31 1 0 10 2 10 6 0 8 -20 43 -16 40 5 -3
26 17 27 24 0 l5 -23 8 23 c4 12 11 20 16 17 5 -3 7 -12 3 -20 -6 -18 18 -20
35 -3 9 9 12 9 12 0 0 -7 7 -12 15 -12 8 0 15 5 15 11 0 8 5 8 15 -1 11 -10
18 -10 29 -1 11 9 15 9 18 0 2 -7 10 -9 16 -5 15 9 16 58 0 74 -8 8 -1 13 31
18 23 4 44 11 47 15 3 5 16 9 30 9 30 0 84 27 101 49 14 19 -2 25 -99 36 -44
6 -57 10 -43 15 11 4 23 6 26 4 4 -2 13 3 20 12 10 12 10 17 0 23 -8 5 4 14
33 25 37 14 46 22 46 41 0 33 -8 35 -60 19 -25 -8 -72 -23 -105 -33 -99 -32
-113 -33 -117 -14 -3 15 20 25 142 59 80 22 152 43 160 46 22 9 80 9 80 1z
m-954 -79 c-5 -13 -10 -14 -18 -6 -6 6 -8 18 -4 28 5 13 10 14 18 6 6 -6 8
-18 4 -28z m-78 20 c12 -4 22 -12 22 -19 0 -9 -8 -10 -35 -1 -54 17 -43 35 13
20z m-98 -24 c0 -11 -4 -20 -9 -20 -5 0 -11 9 -14 20 -3 13 0 20 9 20 8 0 14
-9 14 -20z m35 11 c3 -5 1 -12 -4 -15 -5 -3 -11 1 -15 9 -6 16 9 21 19 6z m39
-41 c6 0 13 -13 14 -30 1 -16 -2 -30 -7 -30 -14 0 -18 9 -24 55 -3 22 -3 32
-1 23 3 -10 11 -18 18 -18z m88 -20 c3 -20 0 -30 -9 -30 -8 0 -13 12 -13 30 0
17 4 30 9 30 5 0 11 -13 13 -30z m38 -1 c0 -17 -4 -28 -10 -24 -5 3 -10 17
-10 31 0 13 5 24 10 24 6 0 10 -14 10 -31z m-190 -22 c0 -21 0 -21 -21 1 -11
12 -17 27 -14 33 10 15 35 -9 35 -34z m30 29 c0 -8 3 -21 6 -30 4 -11 1 -16
-10 -16 -11 0 -16 9 -16 30 0 17 5 30 10 30 6 0 10 -6 10 -14z m650 4 c0 -5
-2 -10 -4 -10 -3 0 -8 5 -11 10 -3 6 -1 10 4 10 6 0 11 -4 11 -10z m167 -12
c-3 -8 -6 -5 -6 6 -1 11 2 17 5 13 3 -3 4 -12 1 -19z m-1761 -1 c4 -4 -4 -7
-19 -7 -14 0 -29 5 -32 10 -7 12 39 9 51 -3z m852 -12 c7 -14 12 -28 12 -30 0
-8 -30 -5 -30 3 0 4 -3 17 -6 30 -9 30 10 28 24 -3z m702 15 c0 -5 -4 -10 -10
-10 -5 0 -10 5 -10 10 0 6 5 10 10 10 6 0 10 -4 10 -10z m-40 -10 c0 -5 -4
-10 -10 -10 -5 0 -10 5 -10 10 0 6 5 10 10 10 6 0 10 -4 10 -10z m200 -11 c0
-6 -4 -7 -10 -4 -5 3 -10 11 -10 16 0 6 5 7 10 4 6 -3 10 -11 10 -16z m-1607
4 c-7 -2 -21 -2 -30 0 -10 3 -4 5 12 5 17 0 24 -2 18 -5z m100 0 c-7 -2 -19
-2 -25 0 -7 3 -2 5 12 5 14 0 19 -2 13 -5z m207 -3 c0 -5 -5 -10 -11 -10 -5 0
-7 5 -4 10 3 6 8 10 11 10 2 0 4 -4 4 -10z m998 -15 c1 -14 0 -25 -2 -25 -2 0
-39 -6 -82 -14 -44 -8 -96 -17 -116 -21 -36 -6 -38 -8 -38 -43 -1 -30 -2 -34
-11 -19 -6 9 -9 25 -7 35 1 9 -2 19 -7 22 -6 3 -12 -19 -15 -50 l-5 -55 -25
42 c-21 37 -31 43 -67 49 -82 12 -114 -7 -147 -89 l-23 -58 -6 57 c-6 59 -30
93 -35 51 -8 -63 -11 -67 -50 -66 -26 0 -32 3 -19 8 17 6 17 8 3 20 -9 7 -16
28 -16 45 0 24 -3 27 -10 16 -9 -13 -10 -13 -10 0 1 21 21 43 53 58 29 13 30
12 40 -33 4 -15 5 -14 6 6 1 33 6 34 231 49 91 6 197 17 235 24 111 21 120 20
123 -9z m42 9 c0 -8 -4 -12 -10 -9 -5 3 -10 10 -10 16 0 5 5 9 10 9 6 0 10 -7
10 -16z m-1455 -9 c55 -8 197 -18 315 -21 118 -4 217 -8 219 -11 3 -2 -3 -11
-12 -20 -11 -11 -17 -13 -17 -5 0 8 -22 12 -70 12 -56 0 -70 -3 -70 -15 0 -12
15 -15 71 -15 l72 0 -35 -42 c-41 -50 -90 -65 -85 -27 3 29 -21 36 -25 7 -2
-19 -10 -23 -45 -26 -23 -2 -66 2 -95 8 -29 5 -83 16 -119 24 -82 16 -105 8
-118 -40 -21 -75 47 -164 125 -164 31 0 78 29 111 68 14 16 30 21 73 22 101 3
94 6 129 -74 37 -84 82 -143 120 -157 30 -12 19 -22 -36 -34 -32 -6 -33 -6
-27 25 l7 31 -39 -6 c-53 -10 -63 -22 -31 -36 15 -7 27 -16 27 -20 0 -12 -31
-19 -48 -10 -38 19 -127 22 -202 5 -41 -9 -90 -19 -107 -21 -18 -3 -33 -10
-33 -15 0 -6 14 -8 30 -6 33 5 38 -3 15 -22 -12 -10 -18 -10 -29 0 -12 9 -22
8 -50 -5 -20 -10 -36 -24 -36 -31 0 -20 -17 -17 -42 8 -21 21 -21 23 -5 26 22
4 16 28 -5 24 -18 -3 -26 15 -67 153 -25 84 -31 125 -37 252 -6 139 -5 153 11
159 9 4 20 3 24 -3 7 -11 98 -27 266 -47 196 -24 225 -25 225 -10 0 8 -3 14
-7 15 -5 0 -16 2 -25 4 -9 2 -66 5 -125 8 -99 5 -312 33 -322 43 -7 7 18 4
124 -11z m342 9 c-3 -3 -12 -4 -19 -1 -8 3 -5 6 6 6 11 1 17 -2 13 -5z m1300
-16 c-3 -8 -6 -5 -6 6 -1 11 2 17 5 13 3 -3 4 -12 1 -19z m-62 -8 c19 -8 19
-9 -2 -9 -12 -1 -25 4 -28 9 -7 12 2 12 30 0z m-67 -25 c-3 -3 -9 2 -12 12 -6
14 -5 15 5 6 7 -7 10 -15 7 -18z m-34 0 c3 -8 1 -15 -4 -15 -6 0 -10 7 -10 15
0 8 2 15 4 15 2 0 6 -7 10 -15z m-64 -33 c0 -7 -4 -10 -10 -7 -5 3 -10 16 -10
28 0 18 2 19 10 7 5 -8 10 -21 10 -28z m-111 -14 c0 -31 -1 -31 -10 -10 -5 13
-7 28 -3 33 10 16 14 9 13 -23z m61 0 c0 -5 -4 -8 -10 -8 -5 0 -10 10 -10 23
0 18 2 19 10 7 5 -8 10 -18 10 -22z m-103 -24 c-10 -10 -37 16 -37 34 0 13 4
12 22 -5 12 -13 19 -25 15 -29z m-27 -44 c0 -5 -15 -10 -32 -9 -28 0 -30 2
-13 9 28 12 45 12 45 0z m482 -15 c-2 -14 -8 -23 -12 -20 -10 6 -1 45 10 45 4
0 5 -11 2 -25z m-748 -20 c-4 -8 -8 -15 -10 -15 -2 0 -4 7 -4 15 0 8 4 15 10
15 5 0 7 -7 4 -15z m560 -170 c-5 -12 -25 -15 -90 -15 -46 0 -84 4 -84 9 0 13
31 18 112 20 56 1 66 -2 62 -14z m-61 -42 c-13 -2 -35 -2 -50 0 -16 2 -5 4 22
4 28 0 40 -2 28 -4z m-1208 -142 c-16 -16 -27 -18 -55 -12 l-35 8 45 10 c64
15 67 15 45 -6z m-115 -11 c0 -5 -5 -10 -11 -10 -5 0 -7 5 -4 10 3 6 8 10 11
10 2 0 4 -4 4 -10z m4020 -5778 c76 -22 112 -51 128 -101 16 -54 15 -65 -5
-90 l-18 -21 -50 25 c-75 37 -129 78 -133 100 -2 11 -12 29 -22 40 -9 11 -25
32 -35 47 l-17 28 48 -6 c27 -3 74 -12 104 -22z m-6291 -931 c-1 -13 -2 -13
-6 1 -3 10 -20 19 -46 24 -23 4 -36 9 -29 11 13 5 17 33 5 33 -5 0 -6 23 -4
52 l3 52 39 -79 c22 -43 38 -86 38 -94z"/>
<path d="M5566 11453 c-8 -26 2 -93 15 -93 10 0 10 54 0 90 -7 25 -8 25 -15 3z"/>
<path d="M5611 11365 c0 -35 2 -37 11 -19 7 15 7 28 -1 40 -9 16 -10 12 -10
-21z"/>
<path d="M6838 9933 c7 -3 16 -2 19 1 4 3 -2 6 -13 5 -11 0 -14 -3 -6 -6z"/>
<path d="M6918 9913 c7 -3 16 -2 19 1 4 3 -2 6 -13 5 -11 0 -14 -3 -6 -6z"/>
<path d="M6587 9890 c-5 -21 7 -35 22 -26 10 7 3 46 -9 46 -4 0 -10 -9 -13
-20z"/>
<path d="M6637 9770 c-3 -11 -3 -20 -1 -20 2 0 8 9 14 20 6 11 7 20 2 20 -6 0
-12 -9 -15 -20z"/>
<path d="M6755 9780 c-3 -5 -1 -10 4 -10 6 0 11 5 11 10 0 6 -2 10 -4 10 -3 0
-8 -4 -11 -10z"/>
<path d="M6863 9753 c-17 -6 -16 -23 1 -23 8 0 16 7 20 15 6 15 1 17 -21 8z"/>
<path d="M7105 9410 c3 -5 8 -10 11 -10 2 0 4 5 4 10 0 6 -5 10 -11 10 -5 0
-7 -4 -4 -10z"/>
<path d="M8078 7713 c-10 -19 -1 -78 13 -78 10 0 13 10 11 35 -4 36 -16 59
-24 43z"/>
<path d="M7978 7579 c-13 -7 -16 -17 -11 -40 4 -21 0 -35 -12 -49 -18 -20 -17
-20 77 -20 64 0 100 4 113 14 16 12 22 12 43 -2 19 -12 30 -13 62 -3 42 12 55
35 48 82 -2 20 -10 24 -47 27 -30 2 -49 -2 -62 -14 -17 -15 -19 -15 -34 0 -21
20 -74 21 -103 0 -20 -14 -22 -14 -22 0 0 18 -26 20 -52 5z m259 -61 c-2 -13
-4 -5 -4 17 -1 22 1 32 4 23 2 -10 2 -28 0 -40z m-136 -5 c-9 -16 -10 -16 -11
-1 0 9 3 25 7 35 7 16 8 17 11 1 2 -10 -1 -25 -7 -35z"/>
<path d="M6150 7774 c0 -40 2 -45 18 -39 15 7 34 11 65 14 4 1 7 15 7 31 0 23
-4 30 -20 30 -15 0 -20 -7 -20 -26 0 -14 -4 -23 -10 -19 -5 3 -10 17 -10 31 0
15 -6 24 -15 24 -11 0 -15 -12 -15 -46z"/>
<path d="M6260 7786 c0 -8 7 -16 15 -20 9 -3 15 0 15 8 0 8 -7 16 -15 20 -9 3
-15 0 -15 -8z"/>
<path d="M6307 7784 c-9 -10 2 -24 19 -24 8 0 14 7 14 15 0 15 -21 21 -33 9z"/>
<path d="M6357 7770 c-4 -16 -1 -20 11 -18 19 4 23 29 6 35 -6 2 -14 -6 -17
-17z"/>
<path d="M6411 7759 c9 -17 13 -19 20 -8 14 22 11 29 -11 29 -18 0 -19 -3 -9
-21z"/>
<path d="M6452 7753 c2 -10 10 -18 18 -18 22 0 18 29 -3 33 -14 3 -18 -1 -15
-15z"/>
<path d="M6500 7745 c0 -8 1 -15 3 -15 77 -12 77 -12 77 9 0 23 -19 28 -38 9
-9 -9 -12 -9 -12 0 0 7 -7 12 -15 12 -8 0 -15 -7 -15 -15z"/>
<path d="M6590 7730 c0 -13 7 -20 20 -20 13 0 20 7 20 20 0 13 -7 20 -20 20
-13 0 -20 -7 -20 -20z"/>
<path d="M6547 7508 c-26 -7 -37 -15 -33 -24 3 -8 1 -14 -3 -14 -5 0 -11 5
-13 12 -3 8 -27 7 -94 -6 -117 -23 -124 -25 -124 -42 0 -8 -10 -14 -25 -14
-14 0 -25 -5 -25 -11 0 -8 11 -9 31 -5 17 3 38 6 45 6 8 0 14 8 15 18 0 15 1
15 7 1 6 -14 19 -13 117 8 61 12 124 25 140 28 63 12 75 16 75 26 0 7 -11 9
-26 6 -16 -3 -28 0 -31 9 -6 16 -4 16 -56 2z"/>
<path d="M6507 7411 c-25 -13 -38 -15 -41 -7 -3 7 -9 4 -16 -6 -12 -20 -40
-24 -40 -6 0 6 -8 3 -20 -7 -14 -12 -28 -16 -50 -12 -16 4 -30 2 -30 -3 0 -5
-7 -7 -15 -4 -11 5 -13 2 -9 -10 5 -13 16 -16 48 -12 22 2 41 5 41 6 0 1 16 3
35 5 19 2 46 6 60 10 14 3 52 10 85 16 64 11 81 20 70 39 -5 8 -10 8 -21 -1
-11 -9 -17 -9 -29 1 -12 10 -15 10 -15 -1 0 -11 -2 -11 -8 -2 -6 10 -16 9 -45
-6z"/>
<path d="M6858 14213 c7 -3 16 -2 19 1 4 3 -2 6 -13 5 -11 0 -14 -3 -6 -6z"/>
<path d="M3150 14175 c0 -14 29 -35 49 -35 18 0 12 29 -8 40 -27 14 -41 13
-41 -5z"/>
<path d="M3168 14110 c36 -22 52 -25 52 -10 0 13 -34 30 -62 30 -21 0 -20 -2
10 -20z"/>
<path d="M6400 14060 c0 -5 7 -7 15 -4 8 4 15 8 15 10 0 2 -7 4 -15 4 -8 0
-15 -4 -15 -10z"/>
<path d="M5280 13927 c0 -7 9 -18 20 -25 24 -15 27 0 4 22 -19 19 -24 20 -24
3z"/>
<path d="M3060 13886 c0 -2 8 -10 18 -17 15 -13 16 -12 3 4 -13 16 -21 21 -21
13z"/>
<path d="M5653 13440 c0 -36 2 -50 4 -32 2 17 2 47 0 65 -2 17 -4 3 -4 -33z"/>
<path d="M5603 13347 c-2 -51 1 -97 5 -104 4 -6 7 33 7 87 -1 126 -9 137 -12
17z"/>
<path d="M5691 13374 c0 -11 3 -14 6 -6 3 7 2 16 -1 19 -3 4 -6 -2 -5 -13z"/>
<path d="M6995 13079 c-10 -15 3 -25 16 -12 7 7 7 13 1 17 -6 3 -14 1 -17 -5z"/>
<path d="M5950 12864 c0 -8 5 -12 10 -9 6 4 8 11 5 16 -9 14 -15 11 -15 -7z"/>
<path d="M7423 12873 c9 -2 25 -2 35 0 9 3 1 5 -18 5 -19 0 -27 -2 -17 -5z"/>
<path d="M7440 12850 c0 -5 7 -10 16 -10 8 0 12 5 9 10 -3 6 -10 10 -16 10 -5
0 -9 -4 -9 -10z"/>
<path d="M7490 12820 c0 -5 5 -10 11 -10 5 0 7 5 4 10 -3 6 -8 10 -11 10 -2 0
-4 -4 -4 -10z"/>
<path d="M7658 12803 c7 -3 16 -2 19 1 4 3 -2 6 -13 5 -11 0 -14 -3 -6 -6z"/>
<path d="M7800 12680 c0 -5 5 -10 11 -10 5 0 7 5 4 10 -3 6 -8 10 -11 10 -2 0
-4 -4 -4 -10z"/>
<path d="M7840 12601 c0 -6 4 -13 10 -16 6 -3 7 1 4 9 -7 18 -14 21 -14 7z"/>
<path d="M5740 12560 c0 -7 -7 -9 -16 -6 -8 3 -12 2 -9 -4 8 -13 32 -13 40 -1
3 5 1 12 -5 16 -5 3 -10 1 -10 -5z"/>
<path d="M7825 12540 c-3 -5 -1 -10 4 -10 6 0 11 5 11 10 0 6 -2 10 -4 10 -3
0 -8 -4 -11 -10z"/>
<path d="M5705 12420 c-29 -30 -30 -45 -4 -35 12 4 44 65 35 65 -1 0 -15 -13
-31 -30z"/>
<path d="M7608 12423 c7 -3 16 -2 19 1 4 3 -2 6 -13 5 -11 0 -14 -3 -6 -6z"/>
<path d="M7695 12400 c-4 -6 6 -10 22 -10 22 0 25 2 13 10 -19 12 -27 12 -35
0z"/>
<path d="M5710 12369 c0 -5 5 -7 10 -4 6 3 10 8 10 11 0 2 -4 4 -10 4 -5 0
-10 -5 -10 -11z"/>
<path d="M7811 12353 c-12 -13 -12 -16 0 -24 9 -6 15 -4 17 6 6 26 -2 34 -17
18z"/>
<path d="M325 12310 c-3 -5 -19 -10 -36 -10 -16 0 -29 -4 -29 -9 0 -14 72 -1
90 15 12 12 12 14 -2 14 -9 0 -20 -4 -23 -10z"/>
<path d="M7841 12304 c0 -11 3 -14 6 -6 3 7 2 16 -1 19 -3 4 -6 -2 -5 -13z"/>
<path d="M6120 12280 c0 -5 5 -10 11 -10 5 0 7 5 4 10 -3 6 -8 10 -11 10 -2 0
-4 -4 -4 -10z"/>
<path d="M7790 12270 c0 -5 5 -10 10 -10 6 0 10 5 10 10 0 6 -4 10 -10 10 -5
0 -10 -4 -10 -10z"/>
<path d="M5720 12255 c-7 -9 -8 -15 -2 -15 5 0 12 7 16 15 3 8 4 15 2 15 -2 0
-9 -7 -16 -15z"/>
<path d="M6115 12249 c-10 -15 3 -25 16 -12 7 7 7 13 1 17 -6 3 -14 1 -17 -5z"/>
<path d="M7820 12250 c0 -5 5 -10 10 -10 6 0 10 5 10 10 0 6 -4 10 -10 10 -5
0 -10 -4 -10 -10z"/>
<path d="M5878 12233 c7 -3 16 -2 19 1 4 3 -2 6 -13 5 -11 0 -14 -3 -6 -6z"/>
<path d="M5780 12220 c-8 -5 -12 -12 -9 -15 8 -8 39 5 39 16 0 11 -11 11 -30
-1z"/>
<path d="M5860 12195 c0 -9 5 -15 11 -13 6 2 11 8 11 13 0 5 -5 11 -11 13 -6
2 -11 -4 -11 -13z"/>
<path d="M5877 12149 c7 -7 15 -10 18 -7 3 3 -2 9 -12 12 -14 6 -15 5 -6 -5z"/>
<path d="M7754 12095 c8 -8 18 -15 22 -15 3 0 1 7 -6 15 -7 8 -17 15 -22 15
-5 0 -3 -7 6 -15z"/>
<path d="M5825 12060 c-3 -5 -1 -10 4 -10 6 0 11 5 11 10 0 6 -2 10 -4 10 -3
0 -8 -4 -11 -10z"/>
<path d="M5940 12015 c0 -8 5 -15 10 -15 6 0 10 7 10 15 0 8 -4 15 -10 15 -5
0 -10 -7 -10 -15z"/>
<path d="M6071 12014 c0 -11 3 -14 6 -6 3 7 2 16 -1 19 -3 4 -6 -2 -5 -13z"/>
<path d="M6000 11965 c0 -19 4 -35 9 -35 12 0 22 44 11 48 -6 2 -8 8 -4 13 3
5 0 9 -5 9 -6 0 -11 -16 -11 -35z"/>
<path d="M5890 11955 c0 -8 5 -15 10 -15 6 0 10 7 10 15 0 8 -4 15 -10 15 -5
0 -10 -7 -10 -15z"/>
<path d="M6845 11920 c-16 -7 -17 -9 -3 -9 9 -1 20 4 23 9 7 11 7 11 -20 0z"/>
<path d="M5908 11890 c-34 -35 -34 -37 -5 -42 19 -4 26 2 39 34 20 47 5 50
-34 8z"/>
<path d="M5855 11900 c-3 -5 3 -10 15 -10 12 0 18 5 15 10 -3 6 -10 10 -15 10
-5 0 -12 -4 -15 -10z"/>
<path d="M6235 11890 c-3 -5 1 -10 9 -10 9 0 16 5 16 10 0 6 -4 10 -9 10 -6 0
-13 -4 -16 -10z"/>
<path d="M6000 11869 c0 -5 5 -7 10 -4 6 3 10 8 10 11 0 2 -4 4 -10 4 -5 0
-10 -5 -10 -11z"/>
<path d="M5810 11829 c0 -5 5 -7 10 -4 6 3 10 8 10 11 0 2 -4 4 -10 4 -5 0
-10 -5 -10 -11z"/>
<path d="M7116 11815 c-19 -15 -19 -15 2 -15 13 0 22 6 22 15 0 18 0 18 -24 0z"/>
<path d="M5883 11786 c1 -19 5 -32 10 -29 11 6 9 63 -3 63 -5 0 -9 -15 -7 -34z"/>
<path d="M5780 11720 c0 -5 5 -10 10 -10 6 0 10 5 10 10 0 6 -4 10 -10 10 -5
0 -10 -4 -10 -10z"/>
<path d="M5881 11704 c0 -11 3 -14 6 -6 3 7 2 16 -1 19 -3 4 -6 -2 -5 -13z"/>
<path d="M5888 11643 c7 -3 16 -2 19 1 4 3 -2 6 -13 5 -11 0 -14 -3 -6 -6z"/>
<path d="M5848 11633 c7 -3 16 -2 19 1 4 3 -2 6 -13 5 -11 0 -14 -3 -6 -6z"/>
<path d="M5830 11564 c0 -8 5 -12 10 -9 6 4 8 11 5 16 -9 14 -15 11 -15 -7z"/>
<path d="M6092 11179 c-32 -12 -27 -15 20 -13 24 1 47 -3 51 -9 6 -8 7 -7 5 2
-6 19 -48 30 -76 20z"/>
<path d="M5980 11145 c0 -8 4 -15 9 -15 5 0 11 7 15 15 3 9 0 15 -9 15 -8 0
-15 -7 -15 -15z"/>
<path d="M6107 11143 c-11 -10 -8 -63 3 -63 6 0 14 8 17 18 4 9 11 20 16 23 5
4 6 12 3 18 -8 12 -29 15 -39 4z"/>
<path d="M5720 10960 c0 -5 5 -10 10 -10 6 0 10 5 10 10 0 6 -4 10 -10 10 -5
0 -10 -4 -10 -10z"/>
<path d="M7350 10926 c0 -9 5 -16 10 -16 6 0 10 4 10 9 0 6 -4 13 -10 16 -5 3
-10 -1 -10 -9z"/>
<path d="M5734 10855 c0 -36 5 -65 9 -65 5 0 5 -10 2 -21 -5 -16 -4 -19 6 -14
9 6 11 2 7 -13 -4 -12 -2 -22 4 -22 5 0 7 -4 4 -8 -3 -5 1 -19 8 -33 6 -13 10
-41 8 -61 -2 -25 1 -38 8 -38 7 0 10 -8 7 -20 -3 -11 -1 -20 5 -20 5 0 6 -10
3 -21 -5 -16 -3 -20 6 -17 10 4 14 21 13 56 -2 48 0 51 18 41 11 -6 22 -8 26
-5 3 3 0 6 -6 6 -7 0 -12 7 -12 16 0 9 -5 12 -12 8 -8 -5 -9 0 -6 14 4 12 2
22 -3 22 -5 0 -9 -5 -9 -12 0 -6 -2 -9 -5 -7 -2 3 -2 15 2 28 4 17 8 19 14 9
7 -10 9 -9 9 5 0 11 -8 17 -21 17 -16 0 -19 3 -11 13 6 7 7 18 3 25 -4 8 -6
25 -3 39 3 16 1 24 -5 20 -6 -4 -15 5 -21 18 -9 19 -9 25 0 25 6 0 4 8 -5 18
-10 10 -14 22 -10 27 5 4 2 5 -4 1 -8 -4 -13 -1 -13 8 0 8 -4 17 -9 20 -4 3
-8 -24 -7 -59z m56 -152 c0 -32 -5 -28 -14 10 -4 19 -3 26 4 22 5 -3 10 -18
10 -32z"/>
<path d="M5589 10853 c5 -10 12 -27 16 -37 3 -10 8 -16 12 -13 8 8 -17 67 -28
67 -5 0 -5 -8 0 -17z"/>
<path d="M6607 10853 c-12 -11 -8 -23 8 -23 8 0 15 7 15 15 0 16 -12 20 -23 8z"/>
<path d="M5620 10768 c0 -16 5 -28 10 -28 13 0 13 20 0 40 -8 12 -10 9 -10
-12z"/>
<path d="M5458 10758 c2 -10 10 -18 18 -18 23 0 23 15 -1 26 -19 9 -22 8 -17
-8z"/>
<path d="M5706 10735 c-3 -8 0 -14 7 -12 6 1 13 -8 15 -21 2 -12 7 -20 12 -17
9 6 -10 65 -21 65 -4 0 -9 -7 -13 -15z"/>
<path d="M5575 10640 c9 -15 105 -60 127 -60 20 0 23 21 8 50 -8 16 -14 17
-46 7 -27 -8 -40 -8 -55 1 -23 15 -42 16 -34 2z"/>
<path d="M6311 10574 c0 -11 3 -14 6 -6 3 7 2 16 -1 19 -3 4 -6 -2 -5 -13z"/>
<path d="M5841 10540 c0 -14 -8 -36 -17 -49 -10 -14 -13 -26 -7 -32 12 -12 37
60 30 87 -4 15 -5 13 -6 -6z"/>
<path d="M5888 10515 c-3 -14 -1 -25 3 -25 5 0 9 11 9 25 0 14 -2 25 -4 25 -2
0 -6 -11 -8 -25z"/>
<path d="M5787 10484 c-4 -4 -7 -14 -7 -23 0 -11 3 -12 11 -4 6 6 10 16 7 23
-2 6 -7 8 -11 4z"/>
<path d="M5860 10461 c0 -6 -11 -22 -24 -36 -23 -24 -24 -24 -29 -5 -6 23 -37
27 -37 5 0 -8 -9 -24 -20 -35 -11 -11 -17 -21 -12 -21 4 -1 -6 -5 -23 -9 l-30
-7 28 -8 c17 -4 37 -3 50 4 12 6 34 15 50 21 15 5 27 17 27 27 0 15 2 16 10 3
15 -24 12 -80 -4 -80 -8 0 -17 9 -19 20 -4 17 -5 17 -4 -2 1 -13 -2 -29 -6
-35 -16 -26 40 -14 57 12 19 29 20 39 5 29 -9 -5 -10 4 -5 32 5 30 4 35 -4 24
-8 -11 -10 -5 -5 28 4 23 4 42 1 42 -3 0 -6 -4 -6 -9z"/>
<path d="M6115 10421 c-3 -2 -2 -7 0 -11 6 -10 45 -1 45 11 0 8 -37 8 -45 0z"/>
<path d="M5990 10362 c0 -4 6 -14 13 -21 10 -10 8 -15 -7 -27 -23 -16 -17 -18
18 -4 19 7 24 14 19 27 -10 26 -43 45 -43 25z"/>
<path d="M5935 10350 c-3 -5 -1 -10 4 -10 6 0 11 5 11 10 0 6 -2 10 -4 10 -3
0 -8 -4 -11 -10z"/>
<path d="M5965 10330 c-3 -5 3 -10 14 -10 12 0 21 5 21 10 0 6 -6 10 -14 10
-8 0 -18 -4 -21 -10z"/>
<path d="M5902 10315 c-11 -12 -10 -15 2 -15 10 0 13 -6 9 -17 -3 -10 -3 -15
1 -11 9 8 15 58 7 58 -3 -1 -12 -7 -19 -15z"/>
<path d="M6040 10294 c0 -8 5 -12 10 -9 6 4 8 11 5 16 -9 14 -15 11 -15 -7z"/>
<path d="M5958 10274 c5 -29 8 -30 21 -5 8 15 7 20 -8 24 -14 3 -17 0 -13 -19z"/>
<path d="M5847 10261 c-3 -13 1 -21 11 -23 14 -3 14 -5 -1 -20 -20 -19 -21
-28 -6 -28 16 0 41 29 34 39 -3 5 -1 12 5 16 16 10 12 28 -5 21 -8 -3 -15 -1
-15 4 0 18 -18 10 -23 -9z"/>
<path d="M5926 10265 c-3 -9 -6 -24 -5 -33 0 -9 5 -4 10 12 9 32 6 48 -5 21z"/>
<path d="M5916 10195 c-3 -8 -14 -15 -25 -15 -10 0 -21 -7 -25 -15 -9 -23 22
-18 50 9 15 13 22 26 16 30 -5 3 -12 -1 -16 -9z"/>
<path d="M5950 10181 c-7 -15 -7 -21 0 -21 12 0 25 28 17 36 -3 3 -10 -4 -17
-15z"/>
<path d="M5985 10180 c-3 -5 -2 -10 4 -10 5 0 13 5 16 10 3 6 2 10 -4 10 -5 0
-13 -4 -16 -10z"/>
<path d="M5950 9790 c0 -5 5 -10 10 -10 6 0 10 5 10 10 0 6 -4 10 -10 10 -5 0
-10 -4 -10 -10z"/>
<path d="M6225 9170 c-7 -11 31 -70 46 -70 14 0 11 16 -6 30 -8 7 -15 18 -15
26 0 17 -17 27 -25 14z"/>
<path d="M6290 9068 c0 -7 8 -22 17 -33 14 -18 15 -18 9 -2 -3 10 -6 25 -6 33
0 8 -4 14 -10 14 -5 0 -10 -6 -10 -12z"/>
<path d="M2355 8560 c-3 -5 1 -10 9 -10 9 0 16 5 16 10 0 6 -4 10 -9 10 -6 0
-13 -4 -16 -10z"/>
<path d="M6655 8131 c-35 -21 -91 -79 -84 -85 3 -3 53 -8 112 -12 78 -5 107
-4 107 5 0 6 8 11 18 12 10 0 12 3 4 6 -23 9 -1 23 36 23 35 0 35 1 16 15 -17
11 -154 55 -174 55 -3 0 -18 -8 -35 -19z"/>
<path d="M6807 8029 c7 -7 15 -10 18 -7 3 3 -2 9 -12 12 -14 6 -15 5 -6 -5z"/>
<path d="M7360 7480 c-12 -8 -11 -10 8 -10 12 0 22 5 22 10 0 13 -11 13 -30 0z"/>
<path d="M7180 7476 c0 -2 7 -6 15 -10 8 -3 15 -1 15 4 0 6 -7 10 -15 10 -8 0
-15 -2 -15 -4z"/>
<path d="M15108 5755 c-2 -2 -393 -8 -868 -14 -476 -6 -993 -15 -1150 -21
-157 -5 -512 -12 -790 -14 -278 -3 -619 -9 -757 -12 -223 -6 -253 -9 -253 -23
1 -42 5 -43 261 -37 134 4 332 8 439 11 107 3 377 7 600 10 223 3 500 8 615
10 116 3 449 9 740 15 292 6 688 15 880 20 193 5 392 10 443 10 92 0 92 0 92
25 l0 26 -124 -2 c-69 0 -126 -3 -128 -4z"/>
<path d="M2455 5450 c-126 -4 -336 -11 -465 -14 -129 -4 -415 -13 -635 -21
-220 -8 -615 -20 -877 -26 l-478 -13 0 -23 c0 -23 2 -23 113 -23 61 0 225 4
362 10 544 21 842 31 1375 45 113 3 306 10 430 15 183 7 512 19 568 20 6 0 12
9 12 20 0 23 9 23 -405 10z"/>
<path d="M4105 4010 c-3 -5 -1 -10 4 -10 6 0 11 5 11 10 0 6 -2 10 -4 10 -3 0
-8 -4 -11 -10z"/>
<path d="M4065 3970 c-3 -5 -1 -10 4 -10 6 0 11 5 11 10 0 6 -2 10 -4 10 -3 0
-8 -4 -11 -10z"/>
<path d="M10480 2730 c0 -5 5 -10 11 -10 5 0 7 5 4 10 -3 6 -8 10 -11 10 -2 0
-4 -4 -4 -10z"/>
<path d="M10290 2580 c0 -11 5 -20 10 -20 6 0 20 9 32 20 l22 20 -32 0 c-25 0
-32 -4 -32 -20z"/>
<path d="M10898 1913 c7 -3 16 -2 19 1 4 3 -2 6 -13 5 -11 0 -14 -3 -6 -6z"/>
<path d="M8 1833 c7 -3 16 -2 19 1 4 3 -2 6 -13 5 -11 0 -14 -3 -6 -6z"/>
<path d="M10817 1699 c-15 -9 -12 -14 28 -45 51 -38 74 -42 98 -16 20 22 16
27 -41 52 -50 23 -60 24 -85 9z"/>
<path d="M2339 1268 c-1 -7 0 -23 0 -34 1 -12 -5 -24 -13 -27 -9 -4 -16 -11
-16 -17 0 -13 40 7 55 27 6 8 24 15 40 16 19 2 30 8 30 17 0 11 -9 14 -32 12
-17 -2 -34 2 -38 7 -9 15 -25 14 -26 -1z"/>
<path d="M3978 1109 c-3 -27 -10 -34 -48 -49 -25 -10 -81 -35 -125 -55 l-80
-38 50 -9 c103 -17 229 23 260 82 13 24 12 30 -11 63 -30 45 -42 47 -46 6z"/>
<path d="M1320 940 c0 -5 5 -10 11 -10 5 0 7 5 4 10 -3 6 -8 10 -11 10 -2 0
-4 -4 -4 -10z"/>
</g>
</svg>
